<?xml version="1.0" standalone="no"?>
<!DOCTYPE svg PUBLIC "-//W3C//DTD SVG 1.1//EN" "http://www.w3.org/Graphics/SVG/1.1/DTD/svg11.dtd" >
<svg>
<metadata>
Created by FontForge 20120731 at Tue Aug  9 01:13:32 2016
 By www
Copyright (c) 1985, 1987, 1989 Adobe Systems Incorporated. All rights reserved.New Century Schoolbook is a trademark of Linotype AG and/or its subsidiaries.
</metadata>
<defs>
<font id="NewCenturySchoolbook" horiz-adv-x="2277" >
  <font-face 
    font-family="New Yearbook"
    font-weight="400"
    font-stretch="normal"
    units-per-em="4096"
    panose-1="2 2 114 0 0 0 0 0 0 0"
    ascent="3276"
    descent="-820"
    x-height="1901"
    cap-height="2957"
    bbox="-889 -881 4096 4014"
    underline-thickness="61"
    underline-position="-73"
    unicode-range="U+0020-F002"
  />
<missing-glyph horiz-adv-x="3072" 
d="M512 0v2560h2048v-2560h-2048zM2494 66v2428h-1916v-2428h1916z" />
    <glyph glyph-name=".notdef" horiz-adv-x="3072" 
d="M512 0v2560h2048v-2560h-2048zM2494 66v2428h-1916v-2428h1916z" />
    <glyph glyph-name=".null" horiz-adv-x="0" 
 />
    <glyph glyph-name="nonmarkingreturn" horiz-adv-x="0" 
 />
    <glyph glyph-name="space" unicode=" " horiz-adv-x="1139" 
 />
    <glyph glyph-name="exclam" unicode="!" horiz-adv-x="1212" 
d="M840 2421l-29 -176l-70 -365q-20 -116 -36 -336q-13 -180 -13 -536q-4 -74 -4 -222h-164q0 33 2 101t2 100q0 561 -73 967q-10 69 -39 234.5t-42.5 272t-13.5 210.5q0 132 60 240t182 108q138 0 196 -103.5t58 -253.5q0 -147 -16 -241zM356 193q0 101 76 177t178 76
q103 0 180.5 -75t77.5 -178q0 -105 -76.5 -179.5t-181.5 -74.5q-101 0 -177.5 75.5t-76.5 178.5z" />
    <glyph glyph-name="quotedbl" unicode="&#x22;" horiz-adv-x="1593" 
d="M467 2036h-82l-135 803q0 71 53.5 125.5t122.5 54.5t122.5 -53.5t53.5 -126.5zM1208 2036h-82l-135 803q0 71 53.5 125.5t122.5 54.5t122.5 -53.5t53.5 -126.5z" />
    <glyph glyph-name="numbersign" unicode="#" 
d="M2044 1188v-279h-434l-140 -909h-270l139 909h-499l-140 -909h-270l139 909h-434v279h475l74 508h-438v278h475l127 852h270l-127 -852h500l123 852h270l-123 -852h385v-278h-426l-69 -508h393zM1450 1696h-496l-73 -508h499z" />
    <glyph glyph-name="dollar" unicode="$" 
d="M1024 131v1163q-338 70 -560 274t-222 529q0 222 104 387.5t283.5 261t394.5 113.5v434h193v-434q181 -7 290 -41q199 -64 320 -209q143 -178 143 -328q0 -127 -67 -213t-191 -86q-101 0 -169 69t-68 169q0 77 28 119.5t94 85.5q50 46 50 53q0 88 -146.5 148.5
t-283.5 60.5v-1024q277 -74 460 -163.5t297.5 -253.5t114.5 -423q0 -255 -111 -444.5t-308.5 -295t-452.5 -116.5v-495h-193v495q-337 7 -557 156q-120 80 -201.5 212t-81.5 263q0 145 75 252.5t216 107.5q109 0 175.5 -74.5t66.5 -183.5q0 -150 -176 -245q-30 -16 -49 -54
q0 -23 8 -41q128 -212 524 -229zM1217 1237v-1098q151 0 285.5 71.5t215 197.5t80.5 280q0 415 -581 549zM1024 1729v958q-504 -80 -504 -487q0 -125 75.5 -223t191.5 -160t237 -88z" />
    <glyph glyph-name="percent" unicode="%" horiz-adv-x="3412" 
d="M2482 2896h180l-1699 -2970h-201l1524 2654l-9 9l-45 -33q-180 -119 -393 -119q-128 0 -270 53q24 -61 24 -192q0 -223 -122 -470.5t-325.5 -411t-432.5 -163.5q-231 0 -380 149t-149 380q0 379 299 704q315 353 664 353q160 0 278 -99q46 -44 82 -94q146 -90 361 -90
q159 0 340 102.5t274 237.5zM1176 2720q-135 -26 -222.5 -127t-195.5 -287q-250 -444 -250 -639q0 -132 71 -211.5t199 -79.5q140 0 281 114.5t231 254.5q189 289 189 586q0 130 -33 204q-168 58 -270 185zM3232 1184q8 -41 8 -127q0 -149 -41 -271q-69 -208 -183 -386.5
t-280.5 -291t-376.5 -112.5q-236 0 -382 136t-146 372q0 233 131 484.5t347.5 418t455.5 166.5q188 0 314.5 -103t152.5 -286zM2540 139q166 57 301.5 215.5t211.5 359t76 376.5q0 196 -143 307q-60 49 -164 49q-202 0 -450 -447q-117 -219 -173.5 -348t-56.5 -254
q0 -131 77.5 -204.5t193.5 -73.5q69 0 127 20z" />
    <glyph glyph-name="ampersand" unicode="&#x26;" horiz-adv-x="3338" 
d="M1937 1487v176h1155v-176q-142 0 -233.5 -34t-155.5 -106t-131 -200l-82 -160q-133 -254 -311 -463q82 -72 148 -128.5t137 -93t157 -36.5q209 0 320 221q45 119 65 205l168 -33q-9 -103 -77 -266q-102 -225 -242 -327.5t-377 -102.5q-161 0 -322.5 75t-267.5 200
q-377 -299 -778 -299q-418 0 -643 225q-258 258 -258 606q0 300 206.5 536t510.5 373q-176 352 -176 586q0 183 41 308.5t155 248.5q185 197 504 197q246 0 392.5 -92t202.5 -220t56 -249q0 -159 -93.5 -311.5t-257.5 -267.5t-370 -175q203 -355 350.5 -587.5t329.5 -457.5
q113 138 202 307t89 308q0 104 -62 146t-158 50.5t-194 16.5zM954 1503q-315 -187 -315 -520q0 -169 90.5 -350.5t244 -300.5t329.5 -119q220 0 466 152q-240 266 -428.5 551t-341.5 612q-27 -7 -45 -25zM1303 1864q221 74 348 227t127 375q0 162 -86 269.5t-246 107.5
q-158 0 -241 -118t-83 -284q0 -118 57 -292.5t124 -284.5z" />
    <glyph glyph-name="quoteright" unicode="&#x2019;" horiz-adv-x="836" 
d="M188 1815l-90 118q148 107 281 274t133 328q-4 5 -12 13h-21l-16 -4q-29 -9 -98 -9q-96 0 -165 74.5t-69 171.5q0 96 78.5 167t175.5 71q177 0 260.5 -116.5t83.5 -301.5q0 -233 -149.5 -421.5t-391.5 -364.5z" />
    <glyph glyph-name="parenleft" unicode="(" horiz-adv-x="1364" 
d="M1143 3019v-115q-123 -83 -245 -219t-202 -277q-74 -136 -111 -269t-77 -345q-33 -176 -33 -553q0 -218 20 -432t76 -421.5t154 -350.5q191 -275 414 -434v-111q-243 151 -427.5 342.5t-311.5 423.5t-190 490t-63 538q0 535 279 1028q238 418 717 705z" />
    <glyph glyph-name="parenright" unicode=")" horiz-adv-x="1364" 
d="M221 -508v115q65 42 70 45q207 204 312.5 344.5t170.5 351.5q119 401 119 918q0 372 -41 589q-69 380 -199 603.5t-424 453.5v107q243 -147 429 -343.5t310.5 -432.5t186.5 -501.5t62 -549.5q0 -523 -287 -1012q-243 -407 -709 -688z" />
    <glyph glyph-name="asterisk" unicode="*" horiz-adv-x="2048" 
d="M1085 2056l-24 -16v-111q0 -135 16 -200q10 -23 29 -91q16 -24 20 -41q10 -20 17.5 -35.5t11.5 -25.5q29 -79 29 -127q0 -49 -33 -102q-59 -54 -135 -54q-144 0 -164 152q0 88 29 131l20 41q51 105 65 173.5t17 195.5v98l-25 16l-94 -57q-102 -66 -147.5 -105.5
t-106.5 -123.5q-106 -152 -213 -152q-45 0 -94 25q-31 16 -53 61q-21 26 -21 70q0 35 21 86q37 49 41 53q29 10 65 33q148 24 222 28q92 4 258 95l90 45l-4 41l-91 53q-110 67 -196 82q-39 8 -97.5 16.5t-136.5 20.5q-39 16 -61 20q-98 36 -98 172q8 49 32 74q21 32 50 49
q43 16 86 16q112 0 196 -143q46 -68 58 -78q57 -74 213 -172l81 -53l37 16v107q0 187 -82 344q-45 101 -45 160q0 18 9 49q33 127 151 127q80 0 124 -56.5t44 -136.5q0 -40 -41 -135q-50 -97 -64.5 -161.5t-21.5 -198.5v-103l25 -20l90 57q149 100 176 123q24 24 82.5 105.5
t107.5 121t129 39.5q40 -8 62 -28q74 -48 74 -144q0 -37 -21 -74q-56 -102 -233 -102q-99 0 -167 -26t-194 -93l-74 -41l4 -32l91 -54q167 -92 323 -106q110 -15 172 -37q14 -11 26.5 -20t18.5 -17q21 -14 37.5 -50t16.5 -65q0 -63 -45.5 -106t-110.5 -53q-145 5 -217 143
q-47 89 -102 135.5t-169 118.5z" />
    <glyph glyph-name="plus" unicode="+" horiz-adv-x="2482" 
d="M1085 1143v872h312v-872h876v-312h-876v-884h-312v884h-876v312h876z" />
    <glyph glyph-name="comma" unicode="," horiz-adv-x="1139" 
d="M352 -754l-90 119q239 202 311 311q111 157 111 250q0 29 -12 41q-2 2 -6 4t-7 4h-12l-24 -4q-141 0 -209 25q-119 81 -119 213q0 94 76.5 165.5t173.5 71.5q175 0 261.5 -116.5t86.5 -300.5q0 -391 -541 -783z" />
    <glyph glyph-name="hyphen" unicode="-" horiz-adv-x="1364" 
d="M1192 807h-1020v336h1020v-336z" />
    <glyph glyph-name="period" unicode="." horiz-adv-x="1139" 
d="M303 193q0 103 77.5 178t180.5 75q102 0 178 -76t76 -177q0 -98 -76 -176t-174 -78q-105 0 -183.5 75.5t-78.5 178.5z" />
    <glyph glyph-name="slash" unicode="/" horiz-adv-x="1139" 
d="M999 3019h238l-1106 -3080h-225z" />
    <glyph glyph-name="zero" unicode="0" 
d="M1139 -61q-113 0 -240.5 40t-214.5 107q-178 142 -315 389q-98 183 -147.5 438.5t-49.5 499.5q0 551 242 983q120 216 309 354t416 138q382 0 651 -365q201 -274 274 -688q41 -235 41 -430q0 -266 -56 -520.5t-173 -462.5q-277 -483 -737 -483zM1139 2712
q-286 0 -389.5 -283.5t-122.5 -659.5q-9 -239 -9 -319q0 -96 9 -373q23 -962 512 -962q133 0 234.5 83t161.5 211t79 263q45 288 45 786q0 106 -8 328q-8 202 -51.5 411t-155.5 362t-305 153z" />
    <glyph glyph-name="one" unicode="1" 
d="M1434 2888v-2392q0 -143 19.5 -206.5t79.5 -84.5t200 -21h299v-184h-1594v184h193q171 0 253.5 17t113 62.5t30.5 146.5v1757q0 109 -12 155t-66 68.5t-180 22.5h-360v172q559 14 893 303h131z" />
    <glyph glyph-name="two" unicode="2" 
d="M143 -16v114l45 62l394 487l589 639q202 216 314 425.5t112 455.5q0 255 -153 395.5t-412 140.5q-124 0 -254.5 -51t-216.5 -146.5t-90 -224.5q0 -19 16 -45q32 -15 45 -28q93 -34 132 -62q114 -67 114 -225q0 -106 -80.5 -169.5t-189.5 -63.5q-149 0 -224 141t-75 301
q0 177 94 336q58 101 165.5 192.5t223.5 143.5q190 86 451 86q223 0 432.5 -96t339 -274.5t129.5 -408.5q0 -275 -128.5 -477.5t-379.5 -410.5l-614 -508l-222 -213l-135 -140h963q131 0 188.5 19t83 73.5t51.5 190.5l45 225h172l-73 -884q-574 16 -860 16q-328 0 -992 -16z
" />
    <glyph glyph-name="three" unicode="3" 
d="M1085 1405l-196 -8q-82 0 -119 8q-26 6 -45.5 31.5t-19.5 50.5q0 115 135 115q24 0 54 -2.5t44 -2.5q90 -8 135 -8q223 0 340 127q135 150 135 459q0 528 -471 528q-133 0 -262 -41t-188 -131q-21 -6 -21 -57q0 -23 29 -57l33 -25q114 -77 114 -192q0 -109 -63 -181.5
t-170 -72.5q-118 0 -192 85t-74 205q0 127 82 278.5t271.5 262.5t489.5 111q225 0 416.5 -80.5t305.5 -242t114 -390.5q0 -173 -76.5 -310t-209.5 -227.5t-300 -130.5v-8q202 -30 352 -127.5t231 -254.5t81 -359q0 -258 -131.5 -444t-352 -280.5t-475.5 -94.5
q-374 0 -641.5 170.5t-267.5 525.5q0 130 76.5 226.5t202.5 96.5q104 0 183 -67t79 -170q0 -102 -30 -142t-126 -100q-77 -50 -86 -82v-45q18 -94 234 -184q116 -45 323 -45q290 0 429.5 175.5t139.5 471.5q0 280 -117.5 457.5t-394.5 177.5z" />
    <glyph glyph-name="four" unicode="4" 
d="M1270 721h-1155v221l1401 1946h167q-24 -254 -24 -385l-8 -230v-1335h508v-221h-508v-205v-106q0 -131 45 -189q86 -41 291 -41q61 0 61 -12q0 -5 -2 -33t-2 -57v-74h-1204v176h159q160 0 226 45q45 49 45 242v258zM1270 2216l-918 -1278h918v1278z" />
    <glyph glyph-name="five" unicode="5" 
d="M659 2433l-65 -717q298 127 516 127q277 0 493.5 -115t334.5 -327.5t118 -491.5q0 -285 -129 -506.5t-357 -342.5t-513 -121q-189 0 -342 36t-277 131q-254 200 -254 533q0 120 78 213.5t197 93.5q105 0 183.5 -65t78.5 -168q0 -95 -32 -143.5t-120 -110.5
q-86 -63 -86 -90q0 -86 99 -146.5t230 -90.5t212 -30q311 0 452.5 232.5t141.5 562.5q0 203 -61 374.5t-196 275.5t-341 104q-259 0 -447 -156q0 -73 -20 -119q-18 -42 -41 -78q-45 -36 -70 -45h-77q-91 29 -91 140q0 30 26 83t52 72q7 15 33 41q2 22 31.5 309.5t44.5 452.5
t22 328q0 76 9 209h40q18 0 160.5 -37t306.5 -63.5t365 -26.5q156 0 267 27t194.5 63.5t91.5 36.5q37 0 37 -41q0 -51 -76.5 -171t-246 -218.5t-431.5 -98.5q-288 0 -541 74z" />
    <glyph glyph-name="six" unicode="6" 
d="M610 1360q250 397 684 397q237 0 424.5 -110t291.5 -302t104 -427q0 -269 -117 -493.5t-328.5 -355t-484.5 -130.5q-332 0 -561.5 187.5t-340 485.5t-110.5 621q0 298 66 579t204 519q153 257 388 407t522 150q162 0 320 -52t261 -163t103 -281q0 -115 -77.5 -199
t-193.5 -84q-98 0 -167.5 72t-69.5 170q0 74 49 164q8 18 17.5 41.5t11.5 28.5q0 127 -226 127q-417 0 -610 -439q-72 -155 -101.5 -311t-50.5 -397q-8 -140 -8 -205zM1192 1516q-280 0 -412.5 -200t-132.5 -493q0 -240 107 -434q79 -142 182 -210t256 -68q263 0 375 241
t112 541q0 168 -50 308.5t-158.5 227.5t-278.5 87z" />
    <glyph glyph-name="seven" unicode="7" 
d="M242 1892l123 996q515 -49 1024 -49q462 0 692 49v-135l-283 -603q-301 -648 -393 -1036q-19 -71 -33 -188q-8 -82 -8 -254q0 -112 -8 -340q-4 -183 -57 -288t-214 -105q-122 0 -183.5 88.5t-61.5 218.5q0 195 100.5 485t239 582t337.5 677.5t248 491.5h-684
q-36 0 -186.5 12.5t-173.5 12.5q-98 0 -142 -39.5t-79 -206.5l-86 -393z" />
    <glyph glyph-name="eight" unicode="8" 
d="M1507 1593q594 -217 594 -790q0 -188 -83 -367t-224 -293q-257 -204 -676 -204q-416 0 -667 196q-283 222 -283 578q0 176 85 315t227.5 232t310.5 141v8q-224 91 -354 274t-130 422q0 163 78 331t205 267q114 94 265 139.5t312 45.5q212 0 396.5 -74.5t299.5 -226
t115 -367.5q0 -205 -134.5 -373t-336.5 -254zM1221 1237l-267 94q-231 -105 -342.5 -257t-111.5 -394q0 -281 167 -429.5t451 -148.5q176 0 329 60.5t246 184.5t93 304q0 251 -201 422q-30 24 -80.5 51.5t-85.5 41.5t-85.5 31.5t-112.5 39.5zM1368 1651q163 128 241.5 252
t78.5 301q0 160 -68 275.5t-188.5 176t-280.5 60.5q-141 0 -265 -49.5t-200 -150t-76 -243.5q0 -260 223.5 -406.5t534.5 -215.5z" />
    <glyph glyph-name="nine" unicode="9" 
d="M1663 1458q-253 -401 -696 -401q-232 0 -416.5 113t-287.5 308t-103 423q0 196 67.5 374t194 317t298 217.5t370.5 78.5q348 0 576 -196t331.5 -505t103.5 -651q0 -284 -66.5 -559t-203.5 -502q-98 -162 -236.5 -282.5t-308.5 -187t-356 -66.5q-297 0 -467 110
q-225 141 -225 373q0 118 79.5 200.5t194.5 82.5q106 0 172 -69.5t66 -176.5q0 -59 -54 -164q-24 -50 -24 -78q0 -106 250 -106q328 0 503 286q112 178 185 549q53 278 53 512zM1102 2707q-284 0 -394 -231t-110 -551q0 -271 125 -451t383 -180q123 0 234.5 61t175.5 165
q106 176 106 434q0 183 -49.5 354.5t-166.5 285t-304 113.5z" />
    <glyph glyph-name="colon" unicode=":" horiz-adv-x="1139" 
d="M864 193q0 -103 -76.5 -178.5t-177.5 -75.5q-102 0 -180 75.5t-78 178.5q0 101 76 177t178 76q103 0 180.5 -75t77.5 -178zM352 1688q0 102 75.5 180t178.5 78q69 0 128 -35.5t94.5 -94.5t35.5 -128q0 -100 -77 -177t-177 -77q-102 0 -180 75.5t-78 178.5z" />
    <glyph glyph-name="semicolon" unicode=";" horiz-adv-x="1139" 
d="M594 1430q-110 0 -186 74t-76 184q0 105 72.5 181.5t177.5 76.5q117 0 195.5 -70t78.5 -188q0 -106 -77.5 -182t-184.5 -76zM385 -774l-90 119q232 197 311 311q103 169 103 246q0 37 -17 53l-37 -4q-135 0 -209 24q-118 83 -118 213q0 93 77.5 165.5t172.5 72.5
q175 0 261.5 -118t86.5 -300q0 -392 -541 -782z" />
    <glyph glyph-name="less" unicode="&#x3c;" horiz-adv-x="2482" 
d="M590 979l1696 -782v-299l-2085 950v262l2085 950v-299z" />
    <glyph glyph-name="equal" unicode="=" horiz-adv-x="2482" 
d="M2273 1532v-307h-2064v307h2064zM2273 733v-307h-2064v307h2064z" />
    <glyph glyph-name="greater" unicode="&#x3e;" horiz-adv-x="2482" 
d="M197 197l1695 782l-1695 782v299l2084 -950v-262l-2084 -950v299z" />
    <glyph glyph-name="question" unicode="?" horiz-adv-x="1819" 
d="M885 799h-172q0 21 -2 61t-2 58q0 223 50 376t191 348l135 181q177 237 177 487q0 533 -484 533q-115 0 -241.5 -55.5t-126.5 -153.5q0 -29 16 -62l33 -24q135 -107 135 -234q0 -94 -68.5 -157.5t-160.5 -63.5q-116 0 -189.5 98.5t-73.5 216.5q0 107 55 221.5t142 192.5
q100 86 189 121.5t233 58.5q80 17 184 17q215 0 394.5 -89t281.5 -254.5t102 -381.5q0 -162 -68 -295.5t-164.5 -233.5t-262.5 -241q-150 -127 -218.5 -236.5t-76.5 -283.5q-8 -132 -8 -205zM537 193q0 101 76 177t178 76q103 0 180.5 -75t77.5 -178q0 -104 -77 -179
t-181 -75q-101 0 -177.5 75.5t-76.5 178.5z" />
    <glyph glyph-name="at" unicode="@" horiz-adv-x="3019" 
d="M2605 762h262q-85 -182 -216.5 -335.5t-295 -262.5t-348 -167t-373.5 -58q-296 0 -561 109.5t-468 313t-316 480.5t-113 604q0 434 186.5 795.5t514.5 569.5t729 208q227 0 448.5 -80t403.5 -232q430 -344 430 -921q0 -500 -279 -819q-125 -140 -300.5 -252.5
t-326.5 -112.5q-134 0 -206.5 106.5t-79.5 258.5h-8q-116 -176 -216.5 -258t-254.5 -82q-207 0 -365 180q-152 168 -152 442q0 235 117 461.5t312 368t411 141.5q134 0 222.5 -81.5t109.5 -221.5h8l62 266h385l-304 -1216q-12 -55 -12 -99q0 -123 82 -123q86 0 186.5 97.5
t178.5 210.5q100 155 160.5 348t60.5 377q0 195 -86.5 376t-233.5 320q-309 291 -729 291q-256 0 -480.5 -94t-389.5 -266t-257.5 -411t-92.5 -519q0 -387 168.5 -680t458.5 -450t642 -157q185 0 359 71.5t319 202.5t248 300zM1294 758q113 0 211.5 126t161.5 275
q55 139 93 312t38 307q0 118 -47 212.5t-145 94.5q-110 0 -205.5 -108t-164.5 -269t-107.5 -330t-38.5 -276q0 -344 204 -344z" />
    <glyph glyph-name="A" unicode="A" horiz-adv-x="2957" 
d="M393 504l991 2515h160l1086 -2654q31 -71 64 -107t72.5 -50t96.5 -17.5t131 -6.5v-184h-1257v184q276 10 344 25q33 3 59.5 29.5t26.5 60.5q0 23 -17 70l-241 594h-1106q-76 -189 -123 -332q-49 -139 -49 -213q0 -147 115 -188t303 -46v-184h-1082v184q304 6 426 320z
M881 1171h950l-483 1205z" />
    <glyph glyph-name="B" unicode="B" horiz-adv-x="2957" 
d="M1024 2507v-885q28 0 86 -2t86 -2q500 0 655 70q156 69 217.5 197.5t61.5 318.5q0 154 -60.5 293t-181.5 202q-155 78 -540 78q-148 0 -222 -16q-44 -24 -58.5 -40.5t-35.5 -66.5q-8 -49 -8 -147zM1401 0h-1278v184q273 10 340 25q77 15 106 98q9 58 9 180v2081l-5 62
q-3 59 -26.5 83.5t-83.5 43.5q-230 16 -340 16v184h1483q207 0 371.5 -28.5t295.5 -114.5q147 -95 235.5 -243t88.5 -314q0 -311 -202.5 -493.5t-522.5 -215.5v-8q357 -27 614.5 -207t257.5 -518q0 -124 -40.5 -254t-114.5 -217q-86 -100 -161.5 -147.5t-223.5 -106.5
q-60 -24 -258 -61q-181 -25 -373 -25q-57 -4 -172 -4zM1024 1425v-954q0 -141 24 -198.5t89.5 -73t234.5 -15.5q214 0 376.5 20.5t279.5 90.5q112 66 168.5 204t56.5 287q0 282 -113.5 424.5t-300.5 185t-479 42.5q-176 0 -336 -13z" />
    <glyph glyph-name="C" unicode="C" horiz-adv-x="2957" 
d="M2298 2736l168 258h151l58 -1184l-176 -8q-85 291 -119 377q-72 177 -133 277.5t-174 193.5q-221 184 -512 184q-239 0 -424.5 -133t-276.5 -358q-87 -217 -115 -431t-28 -507q0 -1282 905 -1282q403 0 631.5 249.5t294.5 667.5l188 -32q-72 -506 -371.5 -787.5
t-803.5 -281.5q-300 0 -556 116.5t-440 321t-282.5 472.5t-98.5 560q0 664 361 1094q424 516 1011 516q214 0 409.5 -72t332.5 -211z" />
    <glyph glyph-name="D" unicode="D" horiz-adv-x="3187" 
d="M127 2773v184h1352q341 0 590 -58t444.5 -218t329.5 -453q155 -344 155 -786q0 -202 -46.5 -402t-141 -381t-236 -319.5t-329.5 -216.5q-133 -54 -258.5 -82t-235.5 -34.5t-305 -6.5h-1327v184h131q36 2 94 3.5t131 5.5q18 3 62 28q45 66 45 189q0 22 -2 59t-2 55v1868
q0 20 2 66t2 69q0 124 -45 197q-46 31 -127 37zM1024 2515v-2163q0 -72 16 -101.5t74 -49.5q66 -17 336 -17t385 25q160 31 259 105.5t187 217.5q117 185 153 425.5t36 545.5q0 226 -29 418q-41 288 -138 467.5t-325 282.5q-213 102 -577 102q-258 0 -307 -20
q-52 -22 -66 -103q-4 -29 -4 -135z" />
    <glyph glyph-name="E" unicode="E" horiz-adv-x="2957" 
d="M127 2773v184h2466l57 -1048h-172q-50 296 -120.5 467t-184 256t-287.5 113t-481 28h-82q-126 0 -184 -7.5t-88.5 -40.5t-30.5 -112v-987h147q271 0 399 129.5t146 431.5h184v-1347h-184q0 185 -50.5 318.5t-155.5 206.5t-261 73h-225v-1098q0 -46 41 -102
q43 -28 188 -37q86 -17 262 -17q222 0 336 21q211 20 340.5 114t200 242t123.5 369q1 6 11.5 54.5t25.5 109.5h168l-78 -1094h-2519v184h123q8 1 81.5 6.5t119 16t79 37t43.5 71.5q8 58 8 177v1982q0 119 -4 176q-9 59 -40 81.5t-95 29.5q-102 12 -307 12z" />
    <glyph glyph-name="F" unicode="F" horiz-adv-x="2732" 
d="M1532 0h-1413v184q273 10 340 25q46 8 65 33q49 41 49 180v2126q0 69 -8 102q-9 21 -17.5 40.5t-15.5 29.5q-36 29 -70.5 34.5t-125.5 10.5q-140 8 -209 8v184h2429l57 -1048h-172q-69 400 -173.5 576.5t-308 232t-636.5 55.5q-126 0 -184 -7.5t-88.5 -40.5t-30.5 -112
v-987h147q271 0 399 129.5t146 431.5h184v-1347h-184q0 185 -50.5 318.5t-155.5 206.5t-261 73h-225v-1086q0 -78 37 -110q11 -11 65 -33q79 -14 232.5 -18.5t177.5 -6.5v-184z" />
    <glyph glyph-name="G" unicode="G" horiz-adv-x="3187" 
d="M2347 2728l160 266h151l62 -1151l-172 -8q-116 448 -341.5 723.5t-637.5 275.5q-330 0 -526 -208.5t-271.5 -517.5t-75.5 -638q0 -579 156 -897q69 -138 182 -240.5t253 -156t294 -53.5q281 0 479 147q121 92 168.5 184t69.5 251q8 53 8 155q0 246 -106 275
q-69 14 -353 24v184h1315v-184q-260 -10 -323 -24q-72 -14 -88.5 -39.5t-30.5 -112.5v-1044h-152l-155 380q-162 -191 -393 -285.5t-492 -94.5q-282 0 -543 120t-453 330q-181 201 -270.5 464.5t-89.5 551.5q0 705 397 1126q225 244 464.5 366t547.5 122q469 0 766 -291z
" />
    <glyph glyph-name="H" unicode="H" horiz-adv-x="3412" 
d="M1470 0h-1351v184q211 15 332.5 39t121.5 96v2323q0 83 -100.5 105t-263.5 22q-70 0 -90 4v184h1360v-184q-225 0 -357 -16q-41 -6 -71.5 -43.5t-30.5 -79.5v-1000h1368v1028q0 68 -78 91q-36 10 -101.5 13t-150.5 4.5t-121 2.5v184h1356v-184q-82 -2 -143.5 -3
t-115.5 -3.5t-109 -9.5q-51 -9 -71 -27.5t-20 -67.5v-2343q0 -81 119 -110q65 -14 189.5 -18.5t142.5 -6.5v-184h-1356v184q41 4 172 4q127 0 203.5 28.5t79.5 115.5l4 1089h-1368v-1114q0 -38 31 -69t75 -37q97 -17 344 -17v-184z" />
    <glyph glyph-name="I" unicode="I" horiz-adv-x="1667" 
d="M1503 0h-1347v184q37 1 120.5 3t139.5 7t88 15q73 29 89.5 71t16.5 134v2138q0 114 -45 172q-67 45 -209 45q-11 0 -70 2t-126 2v184h1351v-184q-221 0 -331 -12q-78 -21 -115 -95q-8 -45 -8 -135v-2130q0 -69 4 -102q33 -55 41 -61q68 -50 209 -50q11 0 68 -2t124 -2
v-184z" />
    <glyph glyph-name="J" unicode="J" 
d="M1757 2523v-1556q-8 -257 -45.5 -439t-155.5 -319q-236 -270 -716 -270q-170 0 -317.5 44t-261 133.5t-177.5 225t-64 309.5q0 185 107.5 332t286.5 147q139 0 225 -79t86 -215q0 -128 -70.5 -209.5t-195.5 -81.5q-31 0 -87 9.5t-69 10.5q-15 0 -33 -8q-7 -15 -24 -25
q-8 -24 -8 -40q0 -55 48.5 -124.5t98.5 -109.5q146 -135 381 -135q183 0 315 97t181 272q49 172 49 630v1385q0 98 -8 143q-12 52 -33.5 74t-73.5 37q-119 12 -360 12v184h1364v-184q-87 0 -275 -8q-112 -5 -140 -59.5t-28 -182.5z" />
    <glyph glyph-name="K" unicode="K" horiz-adv-x="3187" 
d="M1470 0h-1347v184q229 0 340 17q102 38 106 106q4 41 4 123v2105q0 86 -8 131q-21 59 -54.5 75.5t-109.5 23.5q-90 8 -278 8v184h1347v-184q-237 0 -352 -16q-8 -5 -61 -37q-37 -70 -37 -226v-1179l1048 1061q31 36 72.5 85t68.5 96.5t27 88.5q0 48 -38.5 80t-88.5 35
q-40 2 -122 7t-123 5v184h1261v-184q-220 -9 -390.5 -97t-342.5 -263l-582 -578l979 -1417q73 -104 90 -119q54 -78 156 -98q183 -17 254 -17v-184h-1393v184q250 0 369 29q24 6 45 29q8 24 8 37q0 36 -22.5 72.5t-63.5 90.5l-733 1074l-479 -496v-451q0 -188 8 -282
q5 -12 37 -58q6 -4 53 -28q13 0 37 -4t37 -4l278 -9v-184z" />
    <glyph glyph-name="L" unicode="L" horiz-adv-x="2732" 
d="M143 2773v184h1352v-184q-172 0 -258 -4q-106 0 -156 -37q-13 -8 -37 -61q-12 -41 -12 -131v-2081q0 -217 94 -254q115 -21 357 -21q197 0 342 21.5t268 93.5q118 73 178 184.5t121 294.5q58 175 82 344l172 -8l-86 -1114h-2417v184q33 1 82 2.5t104 3.5t105 7
q102 5 127 60t25 173v2179q0 69 -29 103q-7 12 -26 23.5t-27 17.5q-119 20 -361 20z" />
    <glyph glyph-name="M" unicode="M" horiz-adv-x="3867" 
d="M1241 0h-1151v184q332 23 397 164q78 165 78 467v1765q-7 79 -22 113.5t-72 67.5q-49 12 -147 12h-226v184h1053l799 -2216l757 2216h1033v-184q-39 -3 -166 -6t-195 -14q-55 -23 -74 -74q-20 -86 -20 -275v-2044q0 -74 20.5 -107t90.5 -44q110 -25 335 -25v-184h-1347
v184q135 0 201 9q115 7 165 21.5t69.5 61.5t19.5 154v2310h-5l-929 -2740h-152l-987 2748h-4v-1986q0 -211 30.5 -328.5t134.5 -180.5t314 -69v-184z" />
    <glyph glyph-name="N" unicode="N" horiz-adv-x="3338" 
d="M1262 0h-1184v184q210 29 278 54q137 51 173 210t36 379v1811q-93 124 -286 131q-66 4 -201 4v184h856l1626 -2207h8v1552q-9 261 -105.5 357t-361.5 114v184h1151v-184q-198 -12 -296 -64.5t-134.5 -158.5t-44.5 -301v-2310h-160l-1835 2506h-8v-1695q0 -163 18 -265.5
t89 -193.5q67 -56 168 -82q73 -17 213 -25v-184z" />
    <glyph glyph-name="O" unicode="O" horiz-adv-x="3187" 
d="M2478 1479q0 518 -170 936.5t-719 418.5q-498 0 -689 -396t-191 -959q0 -306 55 -600t252 -525t581 -231q498 0 689.5 396.5t191.5 959.5zM3002 1479q0 -241 -89 -508.5t-267 -504t-443.5 -382t-605.5 -145.5q-309 0 -571.5 126t-451 345t-289.5 496.5t-101 572.5
q0 237 90 508t267 505.5t443 380.5t605 146q309 0 572.5 -126t450.5 -343t288.5 -495.5t101.5 -575.5z" />
    <glyph glyph-name="P" unicode="P" horiz-adv-x="2732" 
d="M1495 0h-1380v184h131q147 0 223.5 22t87.5 97l6 62t6 61v2122q0 82 -8 118q-40 103 -274 103q-7 0 -58 2t-114 2v184h1491q321 -15 495 -69q263 -76 410 -275.5t147 -474.5q0 -326 -233 -561q-174 -177 -516 -242q-78 -12 -242 -20q-32 0 -100 -2t-101 -2q-75 0 -225 4
t-225 4v-815q0 -197 37 -262q4 -7 61 -41q34 -7 72.5 -10t81 -4t96.5 -3h131v-184zM1016 2585v-1082q262 -8 393 -8q249 0 415 55t254.5 197.5t88.5 394.5q0 305 -140.5 458t-441.5 165q-90 8 -274 8q-135 0 -197 -20q-40 -13 -49 -17q-32 -22 -38 -51t-11 -100z" />
    <glyph glyph-name="Q" unicode="Q" horiz-adv-x="3187" 
d="M2892 -94h172v-33l-4 -57q-7 -114 -45 -237.5t-99 -184.5q-166 -168 -376 -168q-288 0 -413 225.5t-136 544.5q-20 0 -62 -16q-161 -41 -344 -41q-292 0 -550 125.5t-449 343.5t-296.5 493t-105.5 557q0 309 97.5 581t291.5 501q405 479 1004 479q613 0 1032 -463
q127 -142 214.5 -312t133 -356.5t45.5 -376.5q0 -395 -170.5 -752.5t-480.5 -586.5q11 -27 21 -54.5t20.5 -55t20.5 -54.5q73 -200 119 -299.5t126 -150.5q36 -13 74 -13q41 15 66 29q53 56 66 122t28 210zM2249 455q225 365 225 909q0 344 -20 508q-27 258 -123 487
q-63 148 -171 256t-248.5 163.5t-301.5 55.5q-292 0 -467 -127q-181 -130 -283 -340q-47 -102 -80 -262t-50 -325t-17 -297q0 -747 258 -1065q-8 74 -8 106q0 159 74 286.5t208.5 199t302.5 71.5q180 0 325.5 -81.5t240.5 -224t135 -320.5zM1970 209q0 302 -95 495t-364 193
q-168 0 -270 -122t-102 -292q0 -186 129 -273t325 -87q156 0 340 65q7 5 19 11t18 10z" />
    <glyph glyph-name="R" unicode="R" horiz-adv-x="2957" 
d="M1016 2531v-897q114 -8 348 -8q107 0 303 25q259 31 365 184q41 58 69.5 165.5t28.5 194.5q0 535 -434 562q-296 16 -447 16q-39 0 -111 -10t-85 -27q-37 -57 -37 -205zM115 2773v184h1491q185 0 361 -38.5t325 -124t239 -227.5t90 -339q0 -248 -138 -408.5
t-354.5 -235.5t-461.5 -85v-8q500 -48 631 -553l69 -266q16 -68 34 -142.5t40.5 -135t61.5 -115.5q49 -33 90 -33q93 0 126.5 135.5t33.5 269.5h167q-7 -319 -117 -515.5t-399 -196.5q-87 0 -187.5 45.5t-148.5 113.5q-101 145 -135 336q-4 60 -14.5 154.5t-13.5 128.5
q-20 248 -79.5 402.5t-197 236.5t-383.5 86h-229v-1020q0 -104 17.5 -150.5t76.5 -62.5q67 -14 198 -18.5t150 -6.5v-184h-1352v184q54 4 168 4q174 0 254 58q20 14 29 57q12 41 12 127v2101q0 86 -16 144q-24 60 -56 70.5t-124 19.5z" />
    <glyph glyph-name="S" unicode="S" horiz-adv-x="2580" 
d="M233 -29l-24 1151l176 13q0 -9 4 -25t4 -25q52 -271 185 -490.5t345 -345.5t490 -126q310 0 483 147q201 167 201 389q0 99 -34.5 207.5t-96.5 173.5q-96 106 -311 164l-414 107q-100 25 -191 47.5t-183.5 53.5t-172.5 71t-157 98q-267 196 -267 586q0 404 246.5 628
t650.5 224q226 0 409.5 -69.5t344.5 -217.5l164 258h147l49 -1069h-176q-56 246 -176.5 453t-310.5 333.5t-438 126.5q-279 0 -435 -131q-167 -141 -167 -356q0 -366 483 -492l668 -176q180 -45 297 -111.5t219 -199.5q172 -222 172 -553q0 -201 -85 -380t-243 -300
q-247 -196 -676 -196q-96 0 -250 26.5t-233 59.5q-224 101 -365 229l-180 -283h-152z" />
    <glyph glyph-name="T" unicode="T" horiz-adv-x="2732" 
d="M238 1827h-160l74 1130h2437l65 -1142h-164q-70 406 -172 614q-74 161 -215 252.5t-317 91.5q-151 0 -189 -86q-8 -49 -8 -176v-2044v-86q0 -131 70 -164q74 -33 201 -33h110h103v-184h-1430v184l303 13q103 0 148 28q49 40 49 213v2134q0 78 -8 115q-38 86 -197 86
q-321 0 -508 -299q-88 -125 -164 -496q-10 -41 -28 -151z" />
    <glyph glyph-name="U" unicode="U" horiz-adv-x="3338" 
d="M70 2773v184h1368v-184q-40 -4 -171 -9.5t-202 -15.5q-35 -3 -64.5 -23t-29.5 -50v-1643q0 -240 36.5 -396t172.5 -280q131 -115 276.5 -159.5t341.5 -44.5q209 0 396.5 94.5t287.5 269.5q50 85 82.5 212.5t32.5 229.5v1307q0 194 -38.5 297t-140 151.5t-300.5 59.5v184
h1155v-184q-219 -1 -320.5 -82t-124 -207.5t-22.5 -361.5v-897q0 -213 -14.5 -363t-69.5 -302.5t-162 -280.5q-285 -340 -881 -340q-207 0 -376 32q-328 60 -521 242q-145 139 -201.5 269t-56.5 317v1773q0 79 -10.5 114t-50.5 54q-27 15 -75 21.5t-102.5 8.5t-84.5 3h-131z
" />
    <glyph glyph-name="V" unicode="V" horiz-adv-x="2957" 
d="M-33 2773v184h1274v-184h-180q-108 0 -173 -22t-65 -105q0 -16 9 -44.5t26.5 -73t22.5 -58.5l733 -1868l606 1626q86 230 86 324q0 143 -118.5 182t-295.5 39v184h1102v-184q-143 0 -232.5 -45.5t-142.5 -125t-104 -210.5l-950 -2453h-152l-1016 2543q-58 146 -97 201
t-108 72.5t-225 17.5z" />
    <glyph glyph-name="W" unicode="W" horiz-adv-x="4018" 
d="M25 2773v184h1146v-184q-106 0 -159 4q-89 0 -160 -16q-49 -33 -49 -86q0 -12 12.5 -57.5t20.5 -61.5l589 -1847l496 1642l-123 344q-16 34 -53 50.5t-102.5 22t-69.5 5.5h-127v184h1184v-184q-189 0 -283 -16q-43 -20 -49.5 -28t-28.5 -63q0 -60 53 -212l549 -1741
l480 1630q40 177 40 205q0 79 -35.5 124.5t-92 65t-135 26t-126.5 9.5v184h996v-184q-147 -6 -231.5 -70t-124.5 -154t-91 -263l-700 -2347h-164l-672 2072l-610 -2072h-168l-881 2654q-30 89 -57 125t-64 42.5t-153 12.5h-57z" />
    <glyph glyph-name="X" unicode="X" horiz-adv-x="2884" 
d="M1139 0h-1164v184q186 14 311.5 87t233.5 225l688 946l-807 1159q-49 72 -73.5 100t-81.5 52q-90 20 -271 20v184h1258v-184l-246 -8q-110 -6 -110 -53q0 -32 53 -111l549 -791l442 639q42 58 54 79t12 65q0 69 -32.5 106.5t-80.5 50.5t-114 16.5t-122 6.5v184h1127v-184
q-154 -5 -253.5 -42t-178 -111t-170.5 -203l-570 -783l848 -1216q86 -123 115 -152q30 -37 72.5 -52.5t121 -22.5t80.5 -7h103v-184h-1340v184l258 9q70 0 107 8q33 23 33 65q0 44 -82 164l-582 836l-418 -582q-29 -42 -63.5 -94.5t-57 -102t-22.5 -90.5q0 -65 16.5 -97
t65.5 -75q78 -41 291 -41v-184z" />
    <glyph glyph-name="Y" unicode="Y" horiz-adv-x="2884" 
d="M1257 2957v-184h-131q-9 0 -45 2t-61 2q-135 0 -156 -41q-12 -18 -12 -41q0 -33 12 -57q5 -20 45 -90l688 -1102l484 860q59 112 82 164q16 74 16 110q0 46 -12 82q-41 50 -58 62q-99 40 -344 49v184h1155v-184q-151 -6 -249.5 -48t-167.5 -122.5t-148 -222.5l-651 -1163
v-779q0 -120 13.5 -167t62 -64.5t170.5 -22.5h229v-184h-1405v184h123q71 2 144.5 5t133 24t74.5 74q8 65 8 200v693l-823 1306q-139 229 -217 258q-71 29 -172 29h-98v184h1310z" />
    <glyph glyph-name="Z" unicode="Z" horiz-adv-x="2503" 
d="M385 1917h-168l74 1040h2031v-155l-1691 -2618h635q350 0 536 103q112 64 163 154t116 272q41 124 57 229q26 99 37 193l180 -13l-74 -1122h-2183v160l1684 2613h-561q-310 0 -467 -90.5t-223.5 -254.5t-145.5 -511z" />
    <glyph glyph-name="bracketleft" unicode="[" horiz-adv-x="1364" 
d="M1217 -307v-123l-947 -16v3403l938 -8v-123h-639v-3145z" />
    <glyph glyph-name="backslash" unicode="\" horiz-adv-x="2482" 
d="M303 3019h352l1524 -3019h-352z" />
    <glyph glyph-name="bracketright" unicode="]" horiz-adv-x="1364" 
d="M791 -315v3149h-635v119l934 8v-3403l-943 16v123z" />
    <glyph glyph-name="asciicircum" unicode="^" horiz-adv-x="2482" 
d="M549 1298h-336l868 1659h320l868 -1659h-336l-692 1270z" />
    <glyph glyph-name="underscore" unicode="_" horiz-adv-x="2048" 
d="M2048 -549h-2048v250h2048v-250z" />
    <glyph glyph-name="quoteleft" unicode="&#x2018;" horiz-adv-x="836" 
d="M651 3019l90 -119q-157 -119 -285 -278.5t-128 -323.5l6 -6l6 -6h12l25 4q66 8 86 8q103 0 172.5 -72.5t69.5 -177.5q0 -103 -84 -168t-187 -65q-150 0 -239 117.5t-89 271.5q0 252 145 440t400 375z" />
    <glyph glyph-name="a" unicode="a" 
d="M1847 1278l-12 -709q0 -114 4 -176q9 -131 82 -168q42 -20 135 -20q21 6 51 17t64 24q53 -10 53 -62q-31 -98 -142.5 -159.5t-221.5 -61.5q-151 0 -237 75t-128 228q-132 -158 -328.5 -242.5t-408.5 -84.5q-160 0 -291.5 51.5t-209 161t-77.5 274.5q0 565 1295 750
q0 192 -5 290q-15 312 -438 312q-256 0 -352 -86q-29 -23 -29 -54q0 -21 29 -65q61 -120 61 -168q0 -201 -229 -201q-105 0 -161 74t-56 184q0 126 87.5 232t211.5 161q230 107 500 107q222 0 393 -57q228 -82 294 -220.5t66 -406.5zM1475 1012q-94 -17 -273.5 -51.5
t-313 -88.5t-220 -154.5t-86.5 -254.5q0 -142 101 -231t243 -89q125 0 247.5 65t202.5 169q72 93 83 172.5t16 281.5v181z" />
    <glyph glyph-name="b" unicode="b" 
d="M631 270l-201 -331h-151q41 151 57 458l12 246v1970q0 125 -33.5 159t-130.5 34h-94h-57v172l692 41v-1397h8q72 158 225 249t332 91q202 0 398 -115q217 -129 329.5 -365t112.5 -507q0 -452 -238 -729q-122 -141 -288 -224t-347 -83q-402 0 -626 331zM1262 111
q170 0 270.5 128t140 308.5t39.5 361.5q0 339 -103 593.5t-392 254.5q-200 0 -314 -135.5t-154 -325.5t-40 -395q0 -331 128 -560.5t425 -229.5z" />
    <glyph glyph-name="c" unicode="c" horiz-adv-x="1819" 
d="M1597 594l148 -62q-171 -459 -492 -548q-148 -45 -278 -45q-247 0 -438.5 132.5t-294.5 350.5t-103 463q0 310 105 553.5t317.5 383.5t523.5 140q263 0 451 -160q160 -136 160 -299q0 -128 -59 -211.5t-183 -83.5q-104 0 -175 61.5t-71 164.5q0 52 14.5 79t59.5 93
q37 37 37 61q0 62 -85.5 96.5t-152.5 34.5q-275 0 -399.5 -253t-124.5 -562q0 -336 126.5 -567.5t434.5 -231.5q326 0 479 410z" />
    <glyph glyph-name="d" unicode="d" horiz-adv-x="2351" 
d="M1561 1647v995q0 71 -37 123q-58 37 -197 37q-30 0 -92 2t-92 2v172l794 41v-2634q0 -98 22.5 -140.5t66 -52.5t161.5 -16l82 -4v-172l-708 -41v356h-9q-36 -102 -69 -135q-72 -119 -203 -180t-285 -61q-358 0 -614 307q-205 244 -205 680q0 434 205 704
q111 153 271 242.5t339 89.5q180 0 328 -81.5t233 -233.5h9zM1069 156h4q263 0 375.5 236.5t112.5 541.5q0 370 -95 545q-136 266 -389 266q-188 0 -295.5 -125t-147.5 -306t-40 -368q0 -174 17 -296t69 -232q121 -262 389 -262z" />
    <glyph glyph-name="e" unicode="e" horiz-adv-x="2048" 
d="M1901 922h-1340q0 -213 61 -390t192.5 -281t328.5 -104q323 0 532 283q46 78 49 86q18 22 41 70l140 -78q-130 -286 -331 -427.5t-501 -141.5q-439 0 -692 282q-134 150 -186 315.5t-52 385.5q0 274 112.5 512.5t321.5 383t484 144.5q436 0 684 -414q56 -91 81.5 -192.5
t53.5 -257.5q11 -53 21 -176zM569 1090h688q89 0 131.5 8.5t62 40t19.5 102.5q0 229 -102.5 393t-318.5 164q-244 0 -351 -210t-129 -498z" />
    <glyph glyph-name="f" unicode="f" horiz-adv-x="1364" 
d="M815 1720v-1335q0 -108 6.5 -152.5t31 -61t79 -20t170.5 -8.5h106v-143h-1106v143h107q6 1 65 5.5t92 13t52 31.5q20 77 20 249v1278h-360v181h356q0 516 179 817t628 301q132 0 254 -40.5t200.5 -127.5t78.5 -217q0 -105 -62 -173.5t-168 -68.5q-91 0 -156 62.5
t-65 146.5q0 49 25 98q17 27 20 37q12 12 21 33v33q-19 25 -29 32q-49 25 -115 25q-59 0 -98 -16q-317 -80 -328 -697q0 -41 -2 -123t-2 -122h451v-181h-451z" />
    <glyph glyph-name="g" unicode="g" horiz-adv-x="2200" 
d="M463 -37l37 8v9q-144 21 -225.5 117.5t-81.5 242.5q0 164 96 252.5t268 140.5l37 12q-356 152 -356 562q0 143 69 278.5t185 220.5q210 156 540 156q321 0 524 -156q225 217 398 217q104 0 185 -60t81 -161q0 -87 -54.5 -141.5t-133.5 -54.5q-46 0 -78 16q-71 28 -90 94
q-3 19 -8.5 39t-8.5 35q-12 16 -65 16q-5 -4 -25 -15t-28 -17l-70 -70q151 -129 151 -397q0 -386 -315 -562q-129 -71 -266 -88.5t-377 -21.5q-177 -6 -287 -35t-110 -145q0 -152 151 -152q58 0 173 -4t171 -4q41 0 121 -2t121 -2q56 0 165 -5t167 -7q199 -6 328.5 -134
t129.5 -329q0 -183 -80.5 -311.5t-218 -204.5t-300 -108t-334.5 -32q-379 0 -667 83.5t-288 363.5q0 122 152 258q73 56 217 98zM1028 1802q-208 0 -317 -144.5t-109 -359.5q0 -229 105.5 -372.5t324.5 -143.5q205 0 309.5 146.5t104.5 361.5q0 512 -418 512zM688 -53
q-262 -121 -262 -340q0 -190 279 -254q135 -29 376 -29q224 0 410 82q85 37 149 114.5t64 164.5q0 128 -93 194t-227 76q-115 12 -233 12q-203 0 -463 -20z" />
    <glyph glyph-name="h" unicode="h" horiz-adv-x="2503" 
d="M1122 0h-1032v143h86q24 4 53 6.5t56 4t43 2.5q14 3 57 20q41 37 41 189v2261q0 85 -19 123.5t-96 43.5q-213 13 -250 13v172l742 41v-1463h8q82 180 261 293t382 113q360 0 528 -262q74 -109 96.5 -236t22.5 -305v-770q0 -156 8 -196q14 -31 95 -41l225 -9v-143h-1040
v143h106q27 5 82.5 8t81.5 9q65 5 65 241v770q-5 148 -14.5 224.5t-58.5 148.5q-111 164 -303 164q-150 0 -267 -71t-188 -203q-90 -167 -90 -402v-647q0 -102 8 -150.5t29.5 -64.5t68.5 -18l213 -9v-143z" />
    <glyph glyph-name="i" unicode="i" horiz-adv-x="1290" 
d="M1184 0h-1078v143h111q23 3 73 5.5t82 8t58 19.5q33 86 33 283v942q0 155 -21 229q-11 19 -30 28.5t-41 13t-52 7.5l-245 9v172l766 41v-1573q0 -111 19 -140.5t99 -35.5q133 -9 226 -9v-143zM872 2691q0 -96 -75 -169t-170 -73q-96 0 -167 77t-71 173q0 93 74.5 163.5
t167.5 70.5q98 0 169.5 -71.5t71.5 -170.5z" />
    <glyph glyph-name="j" unicode="j" horiz-adv-x="1212" 
d="M852 1901v-1524l-8 -324q0 -151 -29 -286q-70 -304 -237 -451q-85 -70 -212 -113t-243 -43q-173 0 -316 82.5t-143 245.5q0 111 62.5 176.5t158.5 65.5q51 0 115 -25q102 -42 102 -209q-41 -105 -41 -127q30 -49 107 -49q44 4 123 33q158 98 176 438q8 160 8 475v1139
q0 111 -8 168q-33 110 -254 110q-10 0 -52 2.5t-104 2.5v172zM893 2699q0 -95 -72 -168t-166 -73q-101 0 -171 70t-70 171q0 100 68 167t169 67t171.5 -67t70.5 -167z" />
    <glyph glyph-name="k" unicode="k" horiz-adv-x="2429" 
d="M803 3019v-2048l573 561q16 15 39.5 35.5t35 34.5t20 36t8.5 50q0 69 -230 69h-106v144h1073v-144q-37 0 -53 -8q-175 -11 -294.5 -75.5t-283.5 -207.5l-254 -241l533 -729q82 -110 124.5 -161.5t101 -96t135 -70t179.5 -25.5v-143h-1081v143q55 3 100.5 6t116.5 7
q26 9 37 16q16 16 16 41q0 29 -16 45q-11 20 -30 43t-27 35l-459 651l-258 -237v-385q0 -200 69 -209q25 -4 76.5 -6t75.5 -7h86v-143h-1016v143h103q13 2 78 5t102.5 20t44.5 61q4 45 4 136v2199q0 168 -53 205q-32 17 -78 24t-104.5 9.5t-88.5 3.5h-45v172z" />
    <glyph glyph-name="l" unicode="l" horiz-adv-x="1290" 
d="M78 2806v172l758 41v-2736q0 -70 16 -99q11 -21 53 -32q46 -6 86 -6.5t103 -2.5h82v-143h-1061v143q180 0 270 13q43 15 66 61q8 57 8 176v2241q0 81 -37 131q-57 41 -238 41h-106z" />
    <glyph glyph-name="m" unicode="m" horiz-adv-x="3641" 
d="M119 0v143l78 4q25 3 76.5 5t74.5 4q111 0 111 180q0 20 -2 54t-2 44v967q0 155 -21 229q-10 19 -27.5 28.5t-51 14.5t-36.5 6l-225 9v172l725 41v-316h8q81 164 250.5 270.5t352.5 106.5q200 0 354 -111t194 -266l13 -41l24 41q127 205 300 291t315 86q102 0 213 -37.5
t204 -122.5t131 -217q54 -186 54 -254v-1073q8 -57 24 -78q16 -16 51 -23.5t82 -10t68 -3.5h98v-143h-1015v143q67 0 233 17q51 6 66.5 53.5t15.5 146.5v824q0 178 -25 274q-33 130 -124 196t-187 66q-128 0 -232.5 -70.5t-168.5 -191.5q-86 -162 -86 -487v-676
q3 -92 38 -120t113 -28h90l74 -4v-143h-1012v143q59 3 107.5 6t126.5 7q55 0 70.5 46.5t15.5 153.5v828q0 178 -25 274q-33 130 -124 196t-187 66q-127 0 -232.5 -70.5t-168.5 -191.5q-87 -164 -87 -487v-574q0 -33 9 -143q7 -81 73 -94q30 -7 85 -9t67 -4l82 -4v-143h-1028
z" />
    <glyph glyph-name="n" unicode="n" horiz-adv-x="2503" 
d="M111 0v143h102q22 3 69 5.5t77.5 8t54.5 19.5q32 16 32 82v1143q0 155 -20 229q-9 20 -24.5 29t-35.5 12.5t-47 7.5l-208 9v172l704 41v-349h8q233 410 627 410q171 0 346 -96t252 -314q53 -145 53 -389v-880q0 -11 2 -31t2 -31q6 -57 74 -65q30 -2 88 -4t88 -5l74 -4
v-143h-1036v143q80 0 204 9q71 0 99 32q6 5 13 20t11 21q4 21 4 62v889q0 131 -20 274q-17 119 -126.5 194.5t-246.5 75.5q-129 0 -242 -75.5t-180 -194.5q-57 -103 -71.5 -206t-14.5 -269v-684q2 -10 4 -34.5t4 -35.5q7 -46 61.5 -60t184.5 -14l78 -4v-143h-1044z" />
    <glyph glyph-name="o" unicode="o" horiz-adv-x="2048" 
d="M1028 1798q-471 0 -471 -868q0 -311 97 -573.5t354 -262.5q200 0 307 130t141.5 312t34.5 394q0 373 -74 569q-117 299 -389 299zM1012 -61q-268 0 -466.5 137t-302.5 366t-104 492q0 221 53 384t185 329q118 146 281.5 230.5t345.5 84.5q277 0 484.5 -141.5t314 -377.5
t106.5 -513q0 -274 -106.5 -501t-310 -358.5t-480.5 -131.5z" />
    <glyph glyph-name="p" unicode="p" horiz-adv-x="2351" 
d="M1163 -696v-144h-1040v144l82 4l110 8q56 7 84 25.5t31 68.5q8 98 8 148v1986q-13 100 -58 115t-187 24l-78 5v172l688 41l-8 -312l8 -8q84 170 239.5 275.5t341.5 105.5q398 0 639 -381q105 -202 131 -328q37 -145 37 -311q0 -243 -96.5 -476.5t-282.5 -380t-436 -146.5
q-174 0 -320.5 79.5t-232.5 227.5h-8v-791q0 -94 25.5 -114t134.5 -37h188zM1303 1741q-283 0 -387.5 -250.5t-104.5 -581.5q0 -319 107 -495q143 -254 385 -254q188 0 292.5 126t141.5 304.5t37 372.5q0 157 -21 303q-33 205 -144.5 340t-305.5 135z" />
    <glyph glyph-name="q" unicode="q" 
d="M1651 1614l192 287h152q-60 -281 -70 -422v-1962q0 -124 23 -162t120 -47q119 0 177 -4v-144h-1053v144h82q151 5 197.5 16t61.5 57.5t15 180.5v700h-8q-166 -319 -557 -319q-203 0 -356 82t-287 253q-193 246 -193 648q0 271 108 510.5t313.5 384.5t480.5 145
q172 0 348.5 -98.5t253.5 -249.5zM1057 1786q-492 0 -492 -844q0 -339 103 -545q57 -112 161 -178.5t224 -66.5q499 0 499 856q0 308 -112 543t-383 235z" />
    <glyph glyph-name="r" unicode="r" horiz-adv-x="1819" 
d="M840 1901v-488h8q27 120 104.5 248t208 214.5t297.5 86.5q136 0 230 -90t94 -230q0 -123 -63.5 -200.5t-182.5 -77.5q-90 0 -151.5 65.5t-61.5 155.5q0 93 57 168q5 6 12.5 14t16.5 19q-225 -26 -352.5 -238t-172 -456t-44.5 -396v-467q0 -53 68.5 -69.5t209.5 -16.5h107
v-143h-1106v143q110 9 147 9q98 0 138.5 18.5t49.5 63t9 159.5v1135q-11 61 -38.5 95t-67 47t-66.5 14t-123 4h-82v172z" />
    <glyph glyph-name="s" unicode="s" horiz-adv-x="1896" 
d="M1335 1794l123 152h135v-684h-147q-66 246 -216.5 391t-389.5 145q-97 0 -182.5 -33t-140 -101.5t-54.5 -164.5q0 -144 116 -203.5t310 -99.5l241 -53q152 -27 247.5 -63.5t187.5 -121.5q159 -153 159 -393q0 -160 -45 -268t-163 -211q-79 -67 -211 -107t-248 -40
q-346 0 -570 200l-143 -180h-135v778h151q168 -635 709 -635q152 0 281 85.5t129 230.5q0 189 -209 274q-117 44 -389 107q-35 7 -76 17.5t-96 23.5q-142 40 -221 75.5t-140 112.5q-110 144 -110 365q0 261 166 415t432 154q296 0 499 -168z" />
    <glyph glyph-name="t" unicode="t" horiz-adv-x="1593" 
d="M74 1720v181q293 19 409 253.5t140 573.5h163v-827h611v-181h-611v-1224q0 -134 48.5 -225t218.5 -91q173 0 244 173.5t71 383.5h164q0 -798 -619 -798q-214 0 -358.5 125.5t-144.5 316.5v1339h-336z" />
    <glyph glyph-name="u" unicode="u" horiz-adv-x="2503" 
d="M86 1688v172l713 41v-1172q0 -151 4 -229q6 -154 104 -235t256 -81q148 0 265 71.5t182 203.5q58 126 67.5 212t18.5 312v578q-6 62 -23 83.5t-76 30.5q-57 8 -128 9.5t-171 3.5v172l775 41v-1446q0 -148 45 -193q25 -31 61 -37q30 -2 85 -4t83 -4h86v-176l-737 -41v319
h-8q-95 -173 -261.5 -276.5t-361.5 -103.5q-158 0 -361 85t-245 295q-37 56 -37 349v880q0 70 -29 94q-46 46 -225 46h-82z" />
    <glyph glyph-name="v" unicode="v" horiz-adv-x="2200" 
d="M1180 -61h-131l-676 1572q-57 122 -82 160q-50 61 -82.5 72t-126.5 14h-49v144h966v-144h-57q-184 0 -217 -53q-8 -32 -8 -45q0 -31 33 -103l462 -1093l353 901q65 158 65 250q0 86 -47.5 108t-152.5 31l-82 4v144h815v-144q-112 0 -192 -69t-125 -155.5t-109 -234.5z
" />
    <glyph glyph-name="w" unicode="w" horiz-adv-x="3187" 
d="M1110 -61h-127l-643 1654q-24 82 -66 115q-16 21 -65 37q-49 12 -148 12v144h897v-144l-81 -4q-82 0 -119 -12q-45 -23 -45 -78q0 -40 53 -176l377 -967l364 983q-4 13 -11.5 38.5t-12.5 35.5q-3 11 -17 43.5t-32 75.5q-58 61 -213 61h-41v144h917v-144l-78 -4
q-102 0 -147 -8q-53 -36 -53 -82q0 -29 61 -201l373 -962l323 889q54 140 54 253q-10 76 -55 93.5t-142 21.5h-74v144h766v-144l-57 -4q-114 -16 -160 -74t-98 -196l-582 -1544h-123l-508 1318z" />
    <glyph glyph-name="x" unicode="x" horiz-adv-x="2200" 
d="M57 1757v144h967v-144h-86q-82 0 -119 -12q-32 -16 -37 -37q0 -61 70 -139l295 -385l266 323q74 82 74 148t-50.5 81.5t-146.5 20.5h-57v144h844v-144q-173 -19 -222 -49q-42 -20 -122 -111l-476 -553l492 -655q102 -130 188 -188t230 -58v-143h-1028v143q144 8 225 21
q33 13 33 82q-7 17 -70 110l-311 414l-291 -352q-58 -65 -86 -111q-12 -30 -12 -53q0 -31 41 -78q29 -17 155 -29l78 -4v-143h-864v143q96 6 157 26t107.5 60t116.5 115l82 98l401 467q-153 196 -313.5 404.5t-177.5 230.5q-24 31 -49 62t-50 61q-41 37 -90 62
q-93 28 -164 28z" />
    <glyph glyph-name="y" unicode="y" horiz-adv-x="2200" 
d="M434 -582l-8 -12q0 -24 4 -37q16 -8 21 -16q101 0 193.5 73.5t164.5 179t139 237.5t96 190l-659 1503q-43 97 -79 142t-91 62t-162 17v144h967v-144l-74 -4q-113 0 -157 -17.5t-44 -80.5q0 -38 46 -123l442 -1045l336 844l41 103q1 4 25 67t24 84q0 108 -49.5 138.5
t-167.5 33.5h-74v144h807v-144q-151 -3 -221.5 -80.5t-143.5 -251.5l-507 -1253l-136 -295q-325 -717 -778 -717q-158 0 -267.5 82t-109.5 238q0 102 73 167.5t177 65.5q71 0 132 -52t61 -120q0 -77 -21 -123z" />
    <glyph glyph-name="z" unicode="z" horiz-adv-x="1970" 
d="M1626 729h156l-41 -729h-1581v152l1134 1572h-348q-143 0 -239.5 -26t-174.5 -109q-118 -118 -135 -348v-24h-155l37 684h1478v-144l-1143 -1581h451q335 0 438 168q123 190 123 385z" />
    <glyph glyph-name="braceleft" unicode="{" horiz-adv-x="1364" 
d="M877 2466v-705q0 -149 -25.5 -248t-97 -163t-209.5 -101q140 -37 213 -108t96 -172.5t23 -263.5v-664q0 -210 77 -329t263 -158q-243 0 -378 46.5t-196 174t-61 372.5v639q0 143 -22.5 230t-90 142.5t-199.5 90.5q184 54 248 154.5t64 300.5v704q0 226 71 346.5
t206.5 161.5t357.5 41q-191 -46 -265.5 -160.5t-74.5 -330.5z" />
    <glyph glyph-name="bar" unicode="|" horiz-adv-x="2482" 
d="M1081 0v3019h320v-3019h-320z" />
    <glyph glyph-name="braceright" unicode="}" horiz-adv-x="1364" 
d="M487 1761v705q0 216 -73.5 330.5t-266.5 160.5q222 0 357.5 -41t206.5 -161.5t71 -346.5v-704q0 -198 64 -299.5t248 -155.5q-132 -35 -199.5 -90.5t-90 -142.5t-22.5 -230v-639q0 -245 -61 -372.5t-196 -174t-378 -46.5q188 39 264 158t76 329v664q0 244 63.5 367
t268.5 177q-138 37 -209.5 101t-97 163t-25.5 248z" />
    <glyph glyph-name="asciitilde" unicode="~" horiz-adv-x="2482" 
d="M2101 1348l172 -193q-253 -455 -581 -455q-51 0 -125 19t-128 39.5t-164 66.5t-136 56q-243 102 -344 102q-142 0 -228 -93.5t-190 -275.5l-168 197q123 222 256.5 352.5t329.5 130.5q98 0 210 -36.5t295.5 -116.5t254.5 -106.5t141 -26.5q226 0 405 340z" />
    <glyph glyph-name="exclamdown" unicode="&#xa1;" horiz-adv-x="1212" 
d="M692 1389v-304q0 -194 13 -372q4 -95 28 -283q0 1 14.5 -104t18.5 -105q11 -73 39 -221t41.5 -250.5t13.5 -200.5q0 -156 -54.5 -272.5t-191.5 -116.5q-102 0 -180 78q-74 117 -74 340q0 88 17 180l98 533q27 160 41 377q12 226 12 450q0 180 4 271h160zM864 1982
q0 -103 -78.5 -178t-179.5 -75q-100 0 -177 76t-77 177q0 103 75.5 181t178.5 78q104 0 181 -77t77 -182z" />
    <glyph glyph-name="cent" unicode="&#xa2;" 
d="M1597 1901l197 491h164l-221 -569q11 -11 32 -25q60 -63 104 -147t44 -160q0 -123 -78 -201t-201 -78q-67 0 -127 50l-417 -1049q125 -29 213 -29q161 0 286 93t193 247l24 70l152 -53q-62 -192 -167.5 -325t-259 -205t-351.5 -72q-123 0 -197 24l-213 -541h-176l242 586
q-270 114 -409.5 351t-139.5 542q0 297 115 539t335.5 382t520.5 140q197 0 335 -61zM954 291l471 1184l58 110q6 11 20.5 33t21.5 37t7 28q0 26 -21 41q-78 74 -225 74q-218 0 -348 -119.5t-181.5 -306.5t-51.5 -401q0 -206 58 -399.5t191 -280.5z" />
    <glyph glyph-name="sterling" unicode="&#xa3;" 
d="M700 1335h-553v176h496q-106 386 -106 590q0 233 103.5 412t288.5 277t419 98q113 0 208 -21q144 -28 260 -105.5t184 -197.5t68 -266q0 -136 -75 -234t-207 -98q-109 0 -179.5 65t-70.5 173q0 88 39 124.5t149 104.5q67 32 74 61q-5 111 -135 168.5t-258 57.5
q-263 0 -385 -185q-57 -84 -71.5 -159t-14.5 -209q0 -73 18.5 -160.5t61.5 -260t51 -235.5h700v-176h-659q41 -237 41 -426q0 -285 -131 -487q323 -139 553 -139q185 0 296.5 91.5t194.5 276.5l140 -57q-53 -232 -185 -413t-336 -226q-106 -16 -163 -16q-291 0 -623 245
q-3 -2 -17 -17t-20 -20q-12 -16 -38 -40.5t-48 -45.5q-101 -65 -174 -93.5t-174 -28.5q-140 0 -246 89.5t-106 229.5q0 158 103 253t261 95q108 0 184 -22.5t193 -75.5q25 109 25 217q0 233 -136 610zM324 426q-95 -47 -95 -156q0 -79 63 -129.5t142 -50.5q181 0 307 213
q-53 52 -151 100t-180 48q-48 0 -86 -25z" />
    <glyph glyph-name="fraction" unicode="&#x2044;" horiz-adv-x="684" 
d="M-668 0h-221l2060 2888h218z" />
    <glyph glyph-name="yen" unicode="&#xa5;" 
d="M1712 188v-188h-1077v188h98q52 2 106.5 5t99.5 23.5t56 74.5q9 61 9 196v140h-369v221h369v340h-369v221h246l-512 1012q-45 99 -83 166t-81 84q-24 12 -131 28h-78v189h1003v-176h-94q-8 0 -36 2t-46 2q-106 0 -123 -41v-99q2 -5 16.5 -38t20.5 -48l529 -1081l368 852
q28 54 66 160q0 11 2.5 34.5t5.5 43.5t4 36q0 50 -8 74q-23 41 -45 57q-82 42 -270 50v172h892v-189q-171 -9 -258.5 -94t-175.5 -291l-401 -905h266v-221h-373v-340h373v-221h-373v-193q0 -115 11 -160.5t49.5 -63t132.5 -22.5h180z" />
    <glyph glyph-name="florin" unicode="&#x192;" 
d="M410 -586l-17 -16q-20 -20 -20 -37q0 -12 16 -29q23 -16 53 -16q54 0 121.5 41.5t104.5 85.5q55 65 110 246q46 153 82 565l111 1348h-488v176h504q12 104 33 276.5t57 301.5t101.5 250t169.5 224q188 189 462 189q165 0 272.5 -77.5t133.5 -234.5q0 -112 -59 -180.5
t-166 -68.5q-95 0 -152 47.5t-57 140.5q0 44 53 131q2 4 5.5 13.5t6.5 15.5v24q-2 2 -3.5 6t-4.5 7q-12 16 -61 16q-134 0 -213.5 -110.5t-113.5 -251.5t-54 -302l-45 -421h553v-172h-570l-45 -611l-73 -708q-43 -455 -209 -754q-89 -163 -245.5 -266t-332.5 -103
q-166 0 -292 82t-126 238q0 75 39 143t105 90q31 17 90 17q55 0 82 -17q51 -17 84.5 -70t33.5 -110q0 -52 -36 -119z" />
    <glyph glyph-name="section" unicode="&#xa7;" horiz-adv-x="2048" 
d="M930 2253l217 -185q99 -83 228 -191.5t229.5 -217.5t165.5 -238.5t65 -269.5q0 -152 -67 -281.5t-184 -206.5t-261 -77q-55 0 -111 12l-8 -8q455 -288 455 -672q0 -127 -63.5 -236t-170.5 -178q-158 -106 -397 -106q-229 0 -397 131q-68 55 -118 135t-50 156
q0 111 61 176t160 65q42 0 86 -12q52 -30 66 -41q65 -44 65 -143q0 -50 -17.5 -84.5t-47 -64.5t-66.5 -68q-8 -8 -8 -21q0 -7 5.5 -22.5t6.5 -18.5q6 -8 22 -18.5t23 -18.5q95 -49 221 -49q120 0 226 62q52 34 87.5 98t35.5 127q0 107 -39 178.5t-125 153.5q-59 56 -291 250
l-217 172q-154 128 -252.5 230.5t-162.5 234.5t-64 292q0 213 149.5 373t349.5 160q37 0 111 -16l8 8q-30 13 -102 78q-161 144 -240.5 276t-79.5 313q0 293 271 447q140 82 372 82q338 0 496 -250q49 -73 49 -172q0 -132 -94 -209q-61 -37 -144 -37q-29 0 -77 8
q-57 23 -92 74.5t-35 110.5q0 41 16 73q19 48 74 111q30 18 53 41q2 2 4.5 10t3.5 10q0 17 -4 21q-30 54 -117.5 82t-160.5 28q-113 0 -213 -65t-123 -168q-13 -47 -13 -82q0 -98 60 -178t170 -174zM807 1729q-138 0 -231 -77.5t-93 -213.5q0 -131 77.5 -238t217.5 -233
q324 -283 504 -283q136 0 223.5 84.5t87.5 218.5q0 204 -319 479q-294 263 -467 263z" />
    <glyph glyph-name="currency" unicode="&#xa4;" 
d="M106 623l218 217q-197 265 -197 590q0 371 201 606l-222 221l209 213l222 -225q125 102 287 155.5t331 53.5q338 0 590 -201l217 217l209 -213l-221 -213q213 -250 213 -606q0 -350 -205 -598l213 -217l-201 -209l-217 217q-257 -213 -602 -213q-357 0 -619 213
l-217 -217zM1155 2122q-190 0 -350 -91t-253 -249.5t-93 -351.5q0 -189 93 -345t252 -245.5t347 -89.5q186 0 342 93.5t247 252.5t91 342t-91 339.5t-247 250.5t-338 94z" />
    <glyph glyph-name="quotesingle" unicode="'" horiz-adv-x="836" 
d="M459 2036h-82l-135 803q0 71 53.5 125.5t122.5 54.5t122.5 -53.5t53.5 -126.5z" />
    <glyph glyph-name="quotedblleft" unicode="&#x201c;" horiz-adv-x="1593" 
d="M1405 3019l90 -119q-157 -119 -285.5 -278t-128.5 -324q3 -3 6 -5.5t7 -6.5h12l24 4q66 8 87 8q103 0 172 -72t69 -178q0 -103 -83 -168t-187 -65q-150 0 -239 117.5t-89 271.5q0 252 143.5 439t401.5 376zM651 3019l90 -119q-157 -119 -285 -278.5t-128 -323.5l6 -6
l6 -6h12l25 4q66 8 86 8q103 0 172.5 -72.5t69.5 -177.5q0 -103 -84 -168t-187 -65q-150 0 -239 117.5t-89 271.5q0 252 145 440t400 375z" />
    <glyph glyph-name="guillemotleft" unicode="&#xab;" horiz-adv-x="1745" 
d="M283 1098l422 405q100 103 131 123q69 0 69 -24q0 -30 -49 -107l-98 -152l-250 -360q75 -104 132 -180.5t101 -147.5l107 -172q49 -82 49 -131q-20 -20 -25 -20q-27 0 -50 13.5t-47.5 38.5t-41.5 42l-143 143l-307 295l-123 103l-4 28q19 17 62 50t65 53zM967 1098
l422 405q107 107 131 123q69 0 69 -24q0 -30 -49 -107l-98 -152l-250 -360q75 -104 132 -180.5t101 -147.5l107 -172q49 -82 49 -131q-20 -20 -25 -20q-27 0 -50 13.5t-47.5 38.5t-41.5 42l-143 143l-307 295l-123 103l-4 28q19 17 62 50t65 53z" />
    <glyph glyph-name="guilsinglleft" unicode="&#x2039;" horiz-adv-x="1061" 
d="M283 1098l422 405q100 103 131 123q69 0 69 -24q0 -30 -49 -107l-98 -156l-250 -356q41 -58 84.5 -117.5t81 -112t67.5 -102.5l107 -172q49 -98 49 -127l-20 -20q-29 0 -46 4q-18 10 -98 90l-143 143l-307 295l-123 103l-4 28q19 17 62 50t65 53z" />
    <glyph glyph-name="guilsinglright" unicode="&#x203a;" horiz-adv-x="1061" 
d="M303 1339l-94 156q-49 86 -49 102q0 18 16 29h53q17 -14 52 -47.5t79 -75.5l418 -405l127 -103v-28q-69 -50 -127 -103l-233 -225l-213 -213q-57 -57 -99 -90q-57 0 -65 16q-8 8 -8 17q0 16 10.5 35t25.5 42t21 33l107 172l229 332q-122 156 -250 356z" />
    <glyph glyph-name="fi" unicode="&#xf001;" horiz-adv-x="2503" 
d="M451 1720h-385v181h385q0 59 9.5 162t10.5 128q9 172 98 344.5t222 282.5q238 201 626 201q246 0 398 -90q204 -122 204 -303q0 -124 -64 -199.5t-186 -75.5q-82 0 -143 49q-36 22 -57 69t-21 91q0 88 41 131l29 45v41q-24 44 -94.5 63t-134.5 19q-83 0 -180 -40
t-156 -99q-98 -93 -152 -254q-66 -201 -74 -565h529q432 0 717 45v-1667q0 -62 16 -91q45 -45 217 -45h102v-143h-1028v143q139 0 246 17q45 12 57.5 57.5t12.5 155.5v1179q0 106 -41 137t-135 31h-90h-603v-1413q0 -127 45 -151q30 -7 56.5 -8.5t50 -2t61.5 -2.5h99v-143
h-1028v143l82 4q29 3 86.5 5t85.5 4q37 6 59 35t22 67q5 66 5 193v1269z" />
    <glyph glyph-name="fl" unicode="&#xf002;" horiz-adv-x="2503" 
d="M823 1901h881v458q-5 0 -17 6.5t-20 6.5q-41 17 -53 32q-82 58 -82 176q0 73 49 140q16 20 16 49q0 17 -12 37q-60 49 -192 49q-117 0 -219 -53.5t-170 -147.5q-77 -100 -104 -170t-52 -215q-12 -79 -12 -164q0 -139 -13 -204zM446 1720h-380v181h389q0 171 16 303
q64 381 291 585q69 66 173.5 119t216.5 82t212 29q196 0 352 -58l365 58v-2708q0 -61 4 -94q3 -40 28 -48t87 -13l217 -13v-143h-1041v143q41 2 103 5.5t147 7.5q18 4 49 20q5 7 10.5 20t10.5 25q8 49 8 144v1355h-881v-1319q0 -155 29 -225q25 -14 52.5 -19.5t71.5 -8
t64 -5.5h95v-143h-1033v143h103q23 3 71.5 5.5t79.5 8t58 19.5q32 70 32 225v1319z" />
    <glyph glyph-name="emdash" unicode="&#x2013;" 
d="M2277 852h-2277v250h2277v-250z" />
    <glyph glyph-name="dagger" unicode="&#x2020;" horiz-adv-x="2048" 
d="M1085 -602h-90q0 278 -4 418q-11 388 -57 807q-37 329 -131 548q143 182 164 414q20 212 20 385q-122 -3 -194.5 -20t-194.5 -70q-139 -61 -205 -61q-89 0 -151 54t-62 142q0 91 54 146t147 55q60 0 191.5 -57.5t160.5 -65.5q96 -29 254 -37q0 282 -106 574
q-37 95 -43.5 118t-6.5 103q0 70 58.5 119t130.5 49q103 0 158 -59.5t55 -161.5q0 -69 -57 -209q-99 -243 -99 -533q158 8 254 37q49 14 129 50t129.5 54.5t93.5 18.5q93 0 147 -54t54 -147q0 -89 -61.5 -142.5t-151.5 -53.5q-63 0 -205 61q-119 52 -192.5 69.5t-196.5 20.5
q0 -171 11 -299t54 -258.5t128 -241.5q-8 -16 -13 -24q-148 -396 -155 -987z" />
    <glyph glyph-name="daggerdbl" unicode="&#x2021;" horiz-adv-x="2048" 
d="M1028 -618q-51 12 -94 28q-98 70 -98 180q0 43 7.5 76.5t29 85t24.5 60.5q98 270 98 528q-215 -7 -364 -78q-172 -74 -262 -74q-89 0 -156 86q-25 58 -25 111q0 71 41 127q60 74 152 74q34 0 70 -13q21 -6 66 -24t61 -25q0 -15 174 -56.5t243 -41.5q-4 260 -38 441
t-154 333q120 153 154 333.5t38 440.5q-76 0 -246.5 -41t-170.5 -57q-29 -11 -67.5 -27t-59.5 -22q-50 -8 -70 -8q-101 0 -152 69q-41 63 -41 127q0 53 25 111q67 86 156 86q90 0 262 -74q149 -71 364 -78q0 259 -98 529q-3 9 -24.5 60.5t-29 84.5t-7.5 76q0 110 98 180
q51 19 94 29q85 0 149 -52t64 -133q0 -85 -49 -208q-98 -254 -102 -398q-5 -57 -5 -168q91 0 218 29q47 9 132 46.5t101 43.5q71 28 119 37q82 0 123 -16q86 -37 102 -107q12 -43 12 -82q0 -95 -73 -147q-52 -41 -140 -41q-57 0 -106 16q-47 23 -103 41q-216 94 -385 94
q6 -282 34.5 -439.5t150.5 -334.5q-122 -177 -150.5 -334.5t-34.5 -439.5q169 0 385 94q56 18 103 41q49 17 135 17q72 -9 111 -41q73 -54 73 -148q0 -38 -12 -82q-16 -71 -102 -106q-38 -17 -90 -17q-61 0 -152 37q-195 82 -233 90q-119 29 -218 29q0 -111 5 -168
q4 -143 102 -397q49 -125 49 -209q0 -80 -64 -132t-149 -52z" />
    <glyph glyph-name="periodcentered" unicode="&#xb7;" horiz-adv-x="1139" 
d="M311 979q0 104 77 181t181 77q67 0 126 -36t93.5 -97t34.5 -125q0 -99 -75.5 -176.5t-174.5 -77.5q-102 0 -182 76t-80 178z" />
    <glyph glyph-name="paragraph" unicode="&#xb6;" horiz-adv-x="2482" 
d="M2019 2560v-2765q0 -59 9 -147q0 -50 23.5 -68.5t70.5 -25.5l90 -9l69 -4v-143h-1454v143l82 4l111 9q55 7 83.5 26t31.5 68q8 98 8 147v1536l-148 -8q-363 0 -578.5 212t-215.5 615q0 226 82 417t245 284q114 67 258.5 86.5t335.5 19.5h119h1040v-143l-69 -4l-90 -8
q-46 -7 -70 -25.5t-24 -69.5q-9 -88 -9 -147zM1761 2814h-360v-3273h360v3273zM754 2281v-294q0 -537 331 -537l58 8v1356q-162 0 -246.5 -64t-113.5 -177.5t-29 -291.5z" />
    <glyph glyph-name="bullet" unicode="&#x2022;" horiz-adv-x="2482" 
d="M1929 1581q0 -187 -93 -346.5t-252.5 -252.5t-346.5 -93t-345 93t-250.5 253t-92.5 346t92 345t251 251t345 92t346 -92.5t253 -250.5t93 -345z" />
    <glyph glyph-name="quotesinglbase" unicode="&#x201a;" horiz-adv-x="836" 
d="M188 -774l-90 119q86 63 181 159t164 214t69 229q-2 2 -6 4t-6 4h-13l-24 -4q-140 0 -213 24q-119 80 -119 213q0 95 79.5 166.5t174.5 71.5q177 0 260.5 -116.5t83.5 -301.5q0 -220 -136.5 -400.5t-354.5 -348.5q-13 -7 -50 -33z" />
    <glyph glyph-name="quotedblbase" unicode="&#x201e;" horiz-adv-x="1593" 
d="M188 -774l-90 119q86 63 181 159t164 214t69 229q-2 2 -6 4t-6 4h-13l-24 -4q-140 0 -213 24q-119 80 -119 213q0 95 79.5 166.5t174.5 71.5q177 0 260.5 -116.5t83.5 -301.5q0 -220 -136.5 -400.5t-354.5 -348.5q-13 -7 -50 -33zM942 -774l-90 119q149 110 281.5 275
t132.5 327q-2 2 -6.5 4t-6.5 4h-12l-24 -4q-140 0 -213 24q-119 80 -119 213q0 95 79.5 166.5t174.5 71.5q177 0 260.5 -116.5t83.5 -301.5q0 -220 -136 -399.5t-356 -349.5q-20 -11 -49 -33z" />
    <glyph glyph-name="quotedblright" unicode="&#x201d;" horiz-adv-x="1593" 
d="M188 1815l-90 118q148 107 281 274t133 328q-4 5 -12 13h-21l-16 -4q-29 -9 -98 -9q-96 0 -165 74.5t-69 171.5q0 96 78.5 167t175.5 71q177 0 260.5 -116.5t83.5 -301.5q0 -233 -149.5 -421.5t-391.5 -364.5zM942 1815l-90 118q151 113 282.5 277.5t131.5 324.5l-13 13
h-20l-16 -4q-29 -9 -99 -9q-96 0 -164.5 75t-68.5 171t78.5 167t175.5 71q177 0 260.5 -116.5t83.5 -301.5q0 -233 -149.5 -421.5t-391.5 -364.5z" />
    <glyph glyph-name="guillemotright" unicode="&#xbb;" horiz-adv-x="1745" 
d="M303 1339l-94 156q-49 65 -49 102q0 24 16 29h53q17 -14 52 -47.5t79 -75.5l418 -405l127 -103l-4 -28q-47 -35 -123 -103l-233 -225l-213 -213q-73 -73 -99 -90q-16 -4 -49 -4q-8 4 -16 20q-8 8 -8 17q0 16 10.5 35t25.5 42t21 33l107 172l229 332q-122 156 -250 356z
M987 1339l-94 156q-49 65 -49 102q0 24 16 29h53q17 -14 52 -47.5t79 -75.5l418 -405l127 -103l-4 -28q-47 -35 -123 -103l-233 -225l-213 -213q-74 -74 -98 -90q-17 -4 -50 -4q-8 4 -16 20q-8 8 -8 17q0 16 10.5 35t25.5 42t21 33l107 172l229 332q-122 156 -250 356z" />
    <glyph glyph-name="ellipsis" unicode="&#x2026;" horiz-adv-x="4096" 
d="M426 193q0 103 77.5 178t180.5 75q102 0 178 -76t76 -177q0 -98 -76 -176t-174 -78q-105 0 -183.5 75.5t-78.5 178.5zM1790 193q0 103 77.5 178t180.5 75q102 0 178 -76t76 -177q0 -98 -76 -176t-174 -78q-105 0 -183.5 75.5t-78.5 178.5zM3154 193q0 103 77.5 178
t180.5 75q102 0 178 -76t76 -177q0 -98 -76 -176t-174 -78q-105 0 -183.5 75.5t-78.5 178.5z" />
    <glyph glyph-name="perthousand" unicode="&#x2030;" horiz-adv-x="4096" 
d="M2126 2863h160l-1647 -2867h-193l1459 2535l-9 9l-36 -29q-154 -107 -353 -107q-121 0 -245 45q2 -8 7 -22t5 -23q16 -55 16 -131q0 -254 -188 -544q-104 -170 -268 -282t-351 -112q-138 0 -247 67t-168.5 183t-59.5 254q0 196 131 416.5t334 367t404 146.5
q202 0 319 -156q8 -16 12 -20q46 -30 145.5 -56t157.5 -26q178 0 338 98t277 254zM373 1511q73 -61 176 -61q223 0 459 319q74 107 125 251.5t51 265.5q0 96 -17 172q-2 6 -8 18t-8 18q-155 54 -242 164q-141 -21 -220 -124t-206 -330q-176 -320 -176 -500q0 -65 12.5 -97.5
t53.5 -95.5zM1348 446q0 360 274 660q143 160 274 233.5t320 73.5q129 0 223 -60.5t140.5 -164.5t46.5 -234q0 -108 -33 -221q-68 -234 -188 -402t-320 -282q-92 -53 -254 -53q-116 0 -194.5 25t-157.5 98q-131 131 -131 327zM1896 102q50 0 130.5 36t132.5 75
q90 69 180 209q184 274 184 553q0 135 -74.5 229t-203.5 94q-115 0 -212 -116t-194 -285q-209 -359 -209 -524q0 -271 266 -271zM2777 459q0 321 266 647q254 307 602 307q130 0 224.5 -61t142 -165.5t47.5 -232.5q0 -80 -22.5 -179.5t-62 -198t-83.5 -166.5
q-154 -239 -373 -361q-95 -53 -258 -53q-119 0 -198.5 29.5t-161.5 109.5q-123 123 -123 324zM3240 115q56 -9 78 -9q208 0 384.5 219.5t225.5 444.5q25 146 25 205q0 136 -73 229.5t-202 93.5q-118 0 -212 -114t-193 -287q-209 -359 -209 -524q0 -110 37.5 -168.5
t138.5 -89.5z" />
    <glyph glyph-name="questiondown" unicode="&#xbf;" horiz-adv-x="1819" 
d="M922 1372h172q0 -300 -42 -464.5t-196 -375.5l-135 -180q-94 -130 -135 -243.5t-41 -268.5q0 -234 125.5 -371t357.5 -137q118 0 243.5 59t125.5 163q0 40 -49 77q-136 104 -136 250q0 86 70.5 143.5t159.5 57.5q117 0 189.5 -96t72.5 -215q0 -96 -52.5 -212.5
t-123.5 -181.5q-87 -81 -170 -121t-215 -71q-88 -25 -242 -25q-203 0 -382.5 86.5t-287.5 247t-108 367.5q0 171 65 307t166.5 242t263.5 241q140 121 210 222t81 245q13 124 13 254zM1270 1982q0 -101 -77 -177t-177 -76q-101 0 -179.5 75t-78.5 178q0 105 77 182t181 77
q103 0 178.5 -78t75.5 -181z" />
    <glyph glyph-name="grave" unicode="`" horiz-adv-x="1364" 
d="M426 2732l565 -569h-168l-590 372q-163 99 -163 189q0 43 28 94q9 4 20 16t21 17q25 12 82 12q74 0 205 -131z" />
    <glyph glyph-name="acute" unicode="&#xb4;" horiz-adv-x="1364" 
d="M1130 2535l-589 -372h-168l565 569q86 86 139 111q25 20 82 20q63 0 101 -38t38 -93q0 -44 -32 -90q-44 -54 -136 -107z" />
    <glyph glyph-name="circumflex" unicode="&#x2c6;" horiz-adv-x="1364" 
d="M684 2585l-500 -422h-143l512 680h258l512 -680h-143z" />
    <glyph glyph-name="tilde" unicode="&#x2dc;" horiz-adv-x="1364" 
d="M1241 2699h119q0 -6 -2 -18t-2 -19q-5 -28 -20.5 -67.5t-20.5 -59.5q-99 -174 -193 -221q-75 -49 -192 -49q-91 0 -170.5 29t-214.5 94q-107 61 -189 61q-100 0 -151 -57q-34 -27 -78 -127h-123q39 205 189 328q69 58 163 78q25 8 78 8q67 0 115 -17q83 -17 221 -90
q32 -14 81 -35t86.5 -32t74.5 -11t78 13q118 57 151 192z" />
    <glyph glyph-name="macron" unicode="&#xaf;" horiz-adv-x="1364" 
d="M1323 2327h-1282v221h1282v-221z" />
    <glyph glyph-name="breve" unicode="&#x2d8;" horiz-adv-x="1364" 
d="M1139 2806h123q-23 -289 -166 -466t-424 -177q-178 0 -308 86.5t-196 234t-66 322.5h127q67 -398 467 -398q179 0 292.5 109.5t150.5 288.5z" />
    <glyph glyph-name="dotaccent" unicode="&#x2d9;" horiz-adv-x="1364" 
d="M684 2228q-79 0 -142 63t-63 142q0 75 65 140t140 65q81 0 143 -62t62 -143q0 -85 -61 -145t-144 -60z" />
    <glyph glyph-name="dieresis" unicode="&#xa8;" horiz-adv-x="1364" 
d="M274 2228q-79 0 -141.5 63.5t-62.5 141.5q0 75 64 140t140 65q81 0 143 -62t62 -143q0 -85 -61 -145t-144 -60zM1090 2638q80 0 142 -62t62 -143q0 -85 -61 -145t-143 -60q-80 0 -142.5 63.5t-62.5 141.5q0 75 64 140t141 65z" />
    <glyph glyph-name="ring" unicode="&#x2da;" horiz-adv-x="1364" 
d="M680 2142q-166 0 -286 121t-120 285t121.5 286.5t284.5 122.5q107 0 202 -55.5t151.5 -151t56.5 -202.5q0 -110 -56 -203.5t-151 -148t-203 -54.5zM680 2810q-103 0 -180.5 -80t-77.5 -182q0 -100 79 -179t179 -79q102 0 182 77.5t80 180.5q0 104 -79 183t-183 79z" />
    <glyph glyph-name="cedilla" unicode="&#xb8;" horiz-adv-x="1364" 
d="M332 -426l-29 20l172 406h139l-102 -266q55 12 119 12q155 0 225 -61q47 -29 53 -45q28 -35 37 -62q25 -29 25 -115q0 -120 -107 -233q-94 -69 -187 -90t-231 -21q-163 0 -327 66l57 127l62 -21q16 -2 82.5 -15t105.5 -13q128 0 201 61q37 52 37 127q0 41 -22.5 76
t-59.5 47q-42 16 -66 16q-127 0 -184 -16z" />
    <glyph glyph-name="hungarumlaut" unicode="&#x2dd;" horiz-adv-x="1364" 
d="M250 2269l-66 45l127 324q53 137 98.5 212t131.5 75q106 0 106 -107q0 -81 -115 -221zM782 2269l-65 45l127 324q54 139 99.5 213t129.5 74q107 0 107 -107q0 -84 -119 -221z" />
    <glyph glyph-name="ogonek" unicode="&#x2db;" horiz-adv-x="1364" 
d="M451 0h286q-135 -106 -135 -246q0 -131 135 -131q87 0 201 90l70 -123q-55 -118 -169.5 -188t-244.5 -70q-139 0 -227 84.5t-88 223.5q0 209 172 360z" />
    <glyph glyph-name="caron" unicode="&#x2c7;" horiz-adv-x="1364" 
d="M684 2421l496 422h143l-512 -680h-258l-512 680h143z" />
    <glyph glyph-name="endash" unicode="&#x2014;" horiz-adv-x="4096" 
d="M4096 852h-4096v250h4096v-250z" />
    <glyph glyph-name="AE" unicode="&#xc6;" horiz-adv-x="4096" 
d="M946 0h-946v184q10 2 28.5 8t32.5 9q95 34 158 109.5t129 197.5l1012 1810q78 148 78 230q0 107 -71.5 156.5t-152 57.5t-231.5 11v184h2843l57 -1048l-172 -13q-66 396 -156 574.5t-271 238.5t-568 60q-209 0 -299 -41q-32 -32 -41 -80.5t-9 -157.5v-868q239 0 364 51.5
t182 165t93 340.5h181v-1343h-181q-19 235 -68.5 360t-158.5 181.5t-313 56.5q-14 0 -47 -2t-52 -2v-992q0 -90 5 -135q8 -46 73 -90q123 -29 377 -29q176 0 360.5 40.5t286.5 123.5q116 95 164.5 211t106.5 338q23 89 37 188h167l-81 -1085h-2397v184q21 2 163 7t214 22
q54 12 74 74q8 82 8 245v574h-995l-193 -352q-29 -55 -64.5 -122.5t-57 -129.5t-21.5 -121q0 -85 43 -125.5t98.5 -50.5t161.5 -17l49 -4v-184zM1925 1311v1282q0 110 -16 155q-8 9 -33 17q-20 -10 -21 -12q-27 -18 -69 -95l-742 -1347h881z" />
    <glyph glyph-name="ordfeminine" unicode="&#xaa;" horiz-adv-x="1368" 
d="M1106 2548l-8 -422v-103q9 -83 53 -102q25 -12 90 -12q13 4 34.5 11t39.5 13q33 -5 33 -37q-20 -57 -92 -94t-142 -37q-188 0 -237 181q-179 -197 -480 -197q-161 0 -269 73t-108 218q0 344 844 446q0 119 -4 172q-10 193 -282 193q-157 0 -230 -58q-20 -20 -20 -28
q0 -14 20 -41q37 -63 37 -98q0 -119 -147 -119q-67 0 -103.5 42.5t-36.5 108.5q0 75 57 138.5t136 95.5q153 65 323 65q150 0 258 -32q101 -36 152 -86t66.5 -116.5t15.5 -174.5zM864 2388q-55 -8 -175.5 -28t-206.5 -52t-142.5 -92.5t-56.5 -155.5q0 -83 65.5 -135.5
t159.5 -52.5q179 0 291 139q43 57 52 108.5t13 161.5v107zM90 1327v156h1065v-156h-1065z" />
    <glyph glyph-name="Lslash" unicode="&#x141;" horiz-adv-x="2732" 
d="M139 2773v184h1356v-184q-172 0 -258 -4q-106 0 -156 -37q-13 -8 -37 -61q-16 -41 -16 -131v-738l467 312v-279l-467 -311v-1065q0 -217 98 -254q115 -21 357 -21q194 0 339 21.5t267 93.5q118 73 178 184.5t121 294.5q58 175 82 344l172 -8l-86 -1114h-2417v184
q33 1 82 2.5t104 3.5t105 7q102 5 127 60t25 173v758l-402 -270v278l402 270v1143q0 69 -29 103q-7 12 -26 23.5t-27 17.5q-119 20 -361 20z" />
    <glyph glyph-name="Oslash" unicode="&#xd8;" horiz-adv-x="3187" 
d="M2327 2335l-1377 -1876q63 -133 231 -234.5t404 -101.5q499 0 696 399t197 953q0 218 -45 491q-34 222 -74 279q-6 42 -32 90zM836 655l1384 1860q-17 28 -50 69t-48 62q-67 76 -213 131q-131 57 -316 57q-384 0 -598 -270q-83 -103 -128 -194.5t-65 -171t-57 -269.5
q-36 -198 -36 -532q0 -235 49 -447q10 -40 36 -133t42 -162zM2675 3113h225l-352 -483q1 0 61 -74q121 -137 209 -313t136 -370.5t48 -373.5q0 -178 -49.5 -376.5t-139 -382t-204.5 -322.5q-403 -479 -1020 -479q-286 0 -561 131q-127 64 -250 159l-385 -532h-270l508 680
q-447 477 -447 1102q0 290 104 569.5t293 498t448.5 345.5t559.5 127q299 0 561 -119q124 -53 250 -147z" />
    <glyph glyph-name="OE" unicode="&#x152;" horiz-adv-x="4096" 
d="M1942 2957h1961l54 -1032l-172 -8q-7 32 -33 170.5t-53 210.5q-114 330 -303 418q-123 57 -496 57q-254 0 -373 -20q-32 -7 -50.5 -31t-27 -59t-11 -73.5t-5.5 -74.5v-897q243 4 378.5 45.5t199.5 208.5q18 48 45 168q14 52 20 114v21h184v-1344h-180
q-19 321 -131.5 457.5t-388.5 136.5q-82 0 -127 -4v-999q0 -135 36 -186.5t193 -51.5h336q276 0 426 65.5t247 254.5t183 577h164l-74 -1081h-2265q-194 0 -319.5 7t-258 38t-261.5 98q-185 96 -314 232t-247 342q-201 350 -201 766q0 299 86.5 544.5t273.5 479.5
q363 446 987 446q86 0 258 2t259 2zM1987 1012v1106q0 185 -23 295.5t-117 212.5q-142 147 -422 147q-515 0 -688 -446q-82 -215 -108.5 -421t-26.5 -493q0 -310 82 -602q47 -170 99 -269t163 -194q192 -164 488 -164q365 0 495 267q58 125 58 389v172z" />
    <glyph glyph-name="ordmasculine" unicode="&#xba;" horiz-adv-x="1229" 
d="M618 2863q-303 0 -303 -512q0 -185 62 -338t229 -153q312 0 312 491q0 217 -46 332q-76 180 -254 180zM610 1765q-172 0 -302.5 82t-198.5 217t-68 291q0 235 156 418q170 184 409 184q180 0 314 -83t203 -221t69 -302q0 -252 -156 -419t-426 -167zM1147 1327h-1065v156
h1065v-156z" />
    <glyph glyph-name="ae" unicode="&#xe6;" horiz-adv-x="3260" 
d="M1384 1176v131v106q0 165 -41 234q-93 147 -376 147q-168 0 -283 -70q-35 -14 -45 -41q0 -38 24 -82.5t25 -48.5q17 -37 25 -114q-6 -100 -68.5 -163t-161.5 -63q-103 0 -159 70q-62 56 -62 176q0 163 118 277t289 170.5t330 56.5q473 0 639 -238q251 238 590 238
q262 0 451.5 -123t291.5 -333.5t121 -469.5q0 -24 2.5 -47.5t2.5 -34.5q0 -24 -54 -24h-1290v-82q0 -310 144.5 -495t445.5 -185q179 0 323 89t234 247q25 28 57 94l152 -78q-34 -74 -62 -110q-145 -236 -327.5 -353.5t-442.5 -117.5q-231 0 -445 94.5t-337 273.5
q-140 -178 -340.5 -273t-429.5 -95q-249 0 -413.5 133.5t-164.5 378.5q0 236 210.5 390t486.5 229t540 106zM1384 721v283q-80 -14 -252 -46.5t-295 -84t-203.5 -149t-80.5 -249.5q0 -136 87.5 -227.5t223.5 -91.5q165 0 303.5 81t188.5 230q28 100 28 254zM1765 1110h775
q73 0 106 12q5 8 16 41q4 29 4 86q0 150 -55.5 288t-161.5 204q-85 61 -225 61q-119 0 -220.5 -71t-160.5 -183q-78 -153 -78 -438z" />
    <glyph glyph-name="dotlessi" unicode="&#x131;" horiz-adv-x="1290" 
d="M1184 0h-1078v143h111q23 3 73 5.5t82 8t58 19.5q33 86 33 283v942q0 155 -21 229q-11 19 -30 28.5t-41 13t-52 7.5l-245 9v172l766 41v-1573q0 -111 19 -140.5t99 -35.5q133 -9 226 -9v-143z" />
    <glyph glyph-name="lslash" unicode="&#x142;" horiz-adv-x="1290" 
d="M78 2806v172l758 41v-1065l340 225v-278l-340 -226v-1392q0 -70 16 -99q11 -21 53 -32q62 -9 189 -9h82v-143h-1061v143q180 0 270 13q43 15 66 61q8 57 8 176v1045l-344 -217v278l344 217v922q0 77 -37 127q-57 41 -238 41h-106z" />
    <glyph glyph-name="oslash" unicode="&#xf8;" horiz-adv-x="2048" 
d="M1409 1516l-664 -1299q123 -123 259 -123q487 0 487 836q0 362 -82 586zM639 389l655 1299q-122 110 -270 110q-467 0 -467 -868q0 -320 82 -541zM229 -418l275 537q-71 45 -135 123q-230 278 -230 692q0 221 53 384t185 329q118 146 281.5 230.5t345.5 84.5
q206 0 389 -78l209 393h200l-254 -499q82 -67 127 -127q115 -142 174.5 -327t59.5 -394q0 -274 -106.5 -501t-310 -358.5t-480.5 -131.5q-195 0 -369 73l-221 -426z" />
    <glyph glyph-name="oe" unicode="&#x153;" horiz-adv-x="3412" 
d="M3265 913l-1360 17q0 -350 142.5 -562t455.5 -212q412 0 626 434l148 -78q-130 -225 -251.5 -350t-322.5 -178q-172 -45 -258 -45q-223 0 -423.5 81t-313.5 250q-118 -157 -288.5 -244t-362.5 -87q-432 0 -692 327q-124 158 -175 323.5t-51 377.5q0 258 114.5 488
t322 368.5t468.5 138.5q205 0 384.5 -84t295.5 -244q81 103 187 177t228.5 112.5t252.5 38.5q114 0 234 -33q168 -45 306.5 -168t221 -291t94.5 -344q2 -34 6.5 -88.5t10.5 -124.5zM1921 1102l758 -12q69 0 98 12q23 6 41 24q21 33 21 115q0 134 -45.5 263t-140.5 211.5
t-236 82.5q-171 0 -281.5 -104.5t-161.5 -265t-53 -326.5zM1049 1802q-492 0 -492 -938q0 -288 127.5 -531t388.5 -243q257 0 377 361q82 230 82 553q0 180 -43.5 361t-151.5 309t-288 128z" />
    <glyph glyph-name="germandbls" unicode="&#xdf;" horiz-adv-x="2351" 
d="M827 0h-708v184q28 4 123 4q183 0 204 78q5 58 5 172v1671q0 330 94 508q203 402 708 402q354 0 566 -185q101 -88 159 -225.5t58 -277.5q0 -389 -307 -566q-29 -23 -152 -73v-9q196 -32 335 -166t209 -324t70 -390q0 -219 -72.5 -417t-226 -322.5t-376.5 -124.5
q-193 0 -332.5 102.5t-139.5 286.5q0 108 62 164q13 24 60.5 46.5t78.5 22.5q88 0 164 -53q66 -72 66 -164q0 -16 -9 -61q-8 -9 -17 -40t-24 -42q0 -20 3 -52.5t14 -37.5q16 -9 123 -9q209 91 209 689q0 401 -107 589q-73 139 -171 183.5t-279 58.5q-64 7 -85.5 20t-21.5 66
q0 30 29 57q22 11 131 21q119 0 183 23t124 108q86 130 86 352q0 138 -16.5 233.5t-73.5 188.5q-100 168 -307 168q-439 0 -439 -602v-2257z" />
    <glyph glyph-name="onesuperior" unicode="&#xb9;" horiz-adv-x="1364" 
d="M393 2601h-233v106q365 9 581 181h90v-1446q0 -97 39.5 -136.5t141.5 -39.5h192v-111h-1024v111q36 3 148 5t172 11q24 12 28 16q33 33 33 127v992q0 122 -26.5 153t-141.5 31z" />
    <glyph glyph-name="logicalnot" unicode="&#xac;" horiz-adv-x="2482" 
d="M1966 426v799h-1757v307h2064v-1106h-307z" />
    <glyph glyph-name="mu" unicode="&#xb5;" horiz-adv-x="2503" 
d="M1696 0v319h-8q-95 -173 -261.5 -276.5t-361.5 -103.5q-98 0 -242.5 39.5t-244.5 136.5v-172q0 -69 15 -125t43 -127.5t42 -120t14 -102.5q0 -308 -192 -308q-193 0 -193 308q0 54 13 97.5t41.5 116.5t44.5 132.5t16 128.5v1605q0 70 -29 94q-46 46 -225 46h-82v172
l713 41v-1172q0 -151 4 -229q6 -154 104 -235t256 -81q148 0 265 71.5t182 203.5q58 126 67.5 212t18.5 312v578q-6 62 -23 83.5t-76 30.5q-57 8 -128 9.5t-171 3.5v172l775 41v-1446q0 -148 45 -193q25 -31 61 -37q30 -2 85 -4t83 -4h86v-176z" />
    <glyph glyph-name="trademark" unicode="&#x2122;" horiz-adv-x="4096" 
d="M3912 3019v-86h-86q-79 0 -97 -30.5t-18 -117.5v-1130q0 -91 12.5 -127.5t51.5 -49.5t137 -20v-94h-676v94q94 2 137.5 14.5t59.5 52t16 126.5v1179l-610 -1466h-37l-623 1466v-1163q0 -98 10 -135.5t51 -53t144 -20.5v-94h-520v94h41q93 3 126 27t33 112v1188
q0 98 -16.5 123t-89.5 25h-62v86h492l508 -1200l512 1200h504zM1294 1364h-778v94h29q139 0 184 25q45 28 45 159v1262h-184q-170 0 -234.5 -61.5t-64.5 -229.5h-107v406h1442v-406h-106q0 169 -64.5 230t-234.5 61h-185v-1262q0 -131 45 -159q45 -25 185 -25h28v-94z" />
    <glyph glyph-name="Eth" unicode="&#xd0;" horiz-adv-x="3187" 
d="M119 0v184h131q36 2 94 3.5t131 5.5q18 3 62 28q45 66 45 189q0 22 -2 59t-2 55v869h-398v233h398v766q0 20 2 66t2 69q0 124 -45 197q-46 31 -127 37l-283 12v184h1352q341 0 590 -58t444.5 -218t329.5 -453q155 -344 155 -786q0 -202 -46.5 -402t-141 -381t-236 -319.5
t-329.5 -216.5q-133 -54 -258.5 -82t-235.5 -34.5t-305 -6.5h-1327zM1495 1626v-233h-471v-1041q0 -72 16 -101.5t74 -49.5q66 -17 336 -17t385 25q160 31 259 105.5t187 217.5q117 185 153 425.5t36 545.5q0 226 -29 418q-41 288 -138 467.5t-325 282.5q-213 102 -577 102
q-258 0 -307 -20q-52 -22 -66 -103q-4 -29 -4 -135v-889h471z" />
    <glyph glyph-name="onehalf" unicode="&#xbd;" horiz-adv-x="3416" 
d="M819 0h-221l2060 2888h217zM393 2601h-233v106q365 9 581 181h90v-1446q0 -97 39.5 -136.5t141.5 -39.5h192v-111h-1024v111q36 3 148 5t172 11q24 12 28 16q33 33 33 127v992q0 122 -26.5 153t-141.5 31zM2142 94l254 295l385 381q129 129 202 256t73 272
q0 155 -100 239.5t-269 84.5q-131 0 -244.5 -69.5t-120.5 -184.5q0 -9 13 -25q24 -16 28 -20q58 -16 86 -37q74 -36 74 -135q0 -63 -52.5 -101t-123.5 -38q-97 0 -145 84.5t-48 181.5q0 107 62 201q84 136 254 200q126 54 291 54q143 0 279.5 -57.5t221 -164.5t84.5 -245
q0 -165 -84 -288t-247 -245l-398 -307l-143 -127l-90 -82h627q121 0 154 28t54 140l33 135h111l-49 -528q-370 8 -557 8q-212 0 -648 -8v65z" />
    <glyph glyph-name="plusminus" unicode="&#xb1;" horiz-adv-x="2482" 
d="M1085 1462v553h312v-553h876v-311h-876v-569h-312v569h-876v311h876zM209 0v311h2064v-311h-2064z" />
    <glyph glyph-name="Thorn" unicode="&#xde;" horiz-adv-x="2732" 
d="M1495 0h-1380v184h131q147 0 223.5 22t87.5 97l6 62t6 61v2122q0 82 -8 118q-40 103 -274 103q-7 0 -58 2t-114 2v184h1355v-184q-40 -4 -163 -4q-114 0 -186 -20t-97 -83q-8 -36 -8 -118v-209h590q317 -15 495 -70q264 -76 410.5 -275t146.5 -474q0 -327 -233 -562
q-173 -176 -516 -241q-88 -13 -242 -21q-32 0 -100 -2t-101 -2q-75 0 -225 4t-225 4v-196q0 -197 37 -262q4 -7 61 -41q34 -7 72.5 -10t81 -4t96.5 -3h131v-184zM1016 1966v-1081q262 -8 393 -8q253 0 417 54.5t252.5 197.5t88.5 395q0 304 -139.5 457t-442.5 165
q-90 8 -274 8q-135 0 -197 -20q-34 -9 -49 -16q-33 -22 -38.5 -51.5t-10.5 -100.5z" />
    <glyph glyph-name="onequarter" unicode="&#xbc;" horiz-adv-x="3416" 
d="M2679 434h-750v131l910 1168h110q-20 -175 -20 -369v-803h327v-131h-327v-123q0 -137 28 -176q58 -25 189 -25q25 0 31 -8t6 -53v-45h-783v106h103q106 0 147 25q29 41 29 148v155zM819 0h-221l2060 2888h217zM2671 1331l-586 -770h594v770h-8zM393 2601h-233v106
q365 9 581 181h90v-1446q0 -97 39.5 -136.5t141.5 -39.5h192v-111h-1024v111q36 3 148 5t172 11q24 12 28 16q33 33 33 127v992q0 122 -26.5 153t-141.5 31z" />
    <glyph glyph-name="divide" unicode="&#xf7;" horiz-adv-x="2482" 
d="M209 831v312h2064v-312h-2064zM1253 -45q-105 0 -183.5 75.5t-78.5 178.5t78 178.5t180 75.5q100 0 177 -77t77 -177q0 -98 -76 -176t-174 -78zM1253 1511q-105 0 -183.5 75.5t-78.5 178.5q0 104 77.5 179t180.5 75q102 0 178 -76t76 -178q0 -98 -76 -176t-174 -78z" />
    <glyph glyph-name="brokenbar" unicode="&#xa6;" horiz-adv-x="2482" 
d="M1081 1810v1209h320v-1209h-320zM1081 0v1208h320v-1208h-320z" />
    <glyph glyph-name="degree" unicode="&#xb0;" horiz-adv-x="1638" 
d="M1434 2273q0 -166 -83.5 -308t-225 -224t-306.5 -82q-168 0 -309 82t-223 223t-82 309q0 165 82 306.5t224 225t308 83.5q164 0 306 -83.5t225.5 -225.5t83.5 -306zM1270 2273q0 120 -61 224t-167 165.5t-227 61.5q-184 0 -315 -133t-131 -318q0 -186 132 -318t318 -132
q185 0 318 132t133 318z" />
    <glyph glyph-name="thorn" unicode="&#xfe;" horiz-adv-x="2351" 
d="M1163 -696v-144h-1040v144l82 4l110 8q56 7 84 25.5t31 68.5q8 98 8 148v3104q-13 100 -58 115.5t-187 24.5l-78 4v172l700 41v-1413h8q70 152 223.5 254t337.5 102q398 0 639 -381q105 -202 131 -328q37 -145 37 -311q0 -243 -96.5 -476.5t-282.5 -380t-436 -146.5
q-174 0 -320.5 79.5t-232.5 227.5h-8v-791q0 -94 25.5 -114t134.5 -37h188zM1303 1741q-283 0 -387.5 -250.5t-104.5 -581.5q0 -319 107 -495q143 -254 385 -254q188 0 292.5 126t141.5 304.5t37 372.5q0 157 -21 303q-33 205 -144.5 340t-305.5 135z" />
    <glyph glyph-name="threequarters" unicode="&#xbe;" horiz-adv-x="3416" 
d="M860 0h-221l2060 2888h217zM709 1999l-131 -4q-54 0 -78 4q-41 8 -41 49t31.5 53.5t119.5 12.5h90q152 0 222 69q86 92 86 279q0 319 -308 319q-84 0 -168 -25.5t-122 -80.5q-17 -8 -17 -37q0 -14 21 -33l20 -16q74 -45 74 -115q0 -65 -40.5 -108.5t-111.5 -43.5
q-76 0 -124 52t-48 125q0 182 205 307q138 82 344 82q149 0 272.5 -48t198 -144t74.5 -234q0 -157 -106 -261.5t-275 -140.5v-8q198 -25 314 -141.5t116 -300.5q0 -155 -85.5 -266.5t-229.5 -168.5t-307 -57q-243 0 -416.5 102.5t-173.5 315.5q0 78 49.5 135.5t130.5 57.5
q69 0 118.5 -38.5t49.5 -101.5q0 -62 -19 -86.5t-79 -60.5q-50 -24 -58 -49v-25q13 -59 152 -111q92 -32 209 -32q190 0 281 106t91 287q0 381 -331 381zM2679 434h-750v131l910 1168h110q-20 -175 -20 -369v-803h327v-131h-327v-123q0 -137 28 -176q58 -25 189 -25
q25 0 31 -8t6 -53v-45h-783v106h103q106 0 147 25q29 41 29 148v155zM2679 1331l-594 -770h594v770z" />
    <glyph glyph-name="twosuperior" unicode="&#xb2;" horiz-adv-x="1364" 
d="M86 1249l254 295l385 381q274 276 274 529q0 154 -99.5 238.5t-268.5 84.5q-131 0 -245 -69.5t-120 -184.5q0 -14 13 -24l28 -21q58 -16 86 -37q74 -36 74 -135q0 -63 -52.5 -101t-123.5 -38q-97 0 -145 84.5t-48 181.5q0 107 62 201q41 65 108.5 118t145.5 82
q126 54 291 54q146 0 281.5 -57.5t219.5 -164t84 -245.5q0 -165 -84.5 -288.5t-247.5 -244.5l-397 -307l-143 -127l-90 -82h626q121 0 154.5 28t54.5 140l33 135h111l-50 -528q-368 8 -557 8q-213 0 -647 -8v65z" />
    <glyph glyph-name="registered" unicode="&#xae;" horiz-adv-x="3019" 
d="M1511 -61q-418 0 -773.5 207t-563 562t-207.5 775q0 415 207 768.5t563.5 560.5t773.5 207q313 0 592 -117.5t494 -332.5t332.5 -494t117.5 -592q0 -419 -206.5 -775t-560.5 -562.5t-769 -206.5zM1511 152q360 0 664 178.5t481.5 484.5t177.5 668q0 357 -178 662
t-481.5 483t-663.5 178q-362 0 -667 -178t-482.5 -483t-177.5 -662q0 -362 177.5 -668.5t482.5 -484.5t667 -178zM795 2277v82h671q349 0 480 -78q83 -51 133.5 -143t50.5 -192q0 -126 -62 -220t-164.5 -149.5t-228.5 -73.5q122 -21 196.5 -126.5t160.5 -286.5
q97 -213 143 -267q44 -53 152 -53v-82h-115q-209 0 -279 45q-73 54 -180 320q-117 285 -176 344q-61 57 -238 57h-73v-569q5 -110 123 -115l77 -4v-78h-671v78l82 4q78 6 98 26t20 93v1286q0 67 -27.5 82.5t-99.5 19.5h-73zM1266 1552h98q226 0 358.5 77t132.5 288
q0 179 -103 267.5t-286 88.5h-106q-55 0 -74 -41q-1 -4 -7.5 -18t-9.5 -24t-3 -15v-623z" />
    <glyph glyph-name="minus" unicode="&#x2212;" horiz-adv-x="2482" 
d="M209 823v312h2064v-312h-2064z" />
    <glyph glyph-name="eth" unicode="&#xf0;" horiz-adv-x="2048" 
d="M1028 1798q-471 0 -471 -868q0 -311 97 -573.5t354 -262.5q200 0 307 130t141.5 312t34.5 394q0 373 -74 569q-117 299 -389 299zM459 2875v156q349 -99 647 -348l356 176l103 -147l-316 -156q148 -143 271 -324t209 -387t133 -438.5t47 -476.5q0 -274 -106.5 -501
t-310 -358.5t-480.5 -131.5q-268 0 -466.5 137t-302.5 366t-104 492q0 221 53 384t185 329q118 146 281.5 230.5t345.5 84.5q180 0 331 -66q-113 318 -311 549l-336 -168l-102 148l311 155q-168 165 -438 295z" />
    <glyph glyph-name="multiply" unicode="&#xd7;" horiz-adv-x="2482" 
d="M1024 979l-815 811l221 221l811 -811l815 811l217 -217l-815 -815l815 -815l-217 -217l-815 815l-815 -815l-217 217z" />
    <glyph glyph-name="threesuperior" unicode="&#xb3;" horiz-adv-x="1364" 
d="M668 1999l-131 -4q-54 0 -78 4q-41 8 -41 49t31.5 53.5t119.5 12.5h90q152 0 222 69q86 92 86 279q0 319 -308 319q-84 0 -168 -25.5t-122 -80.5q-17 -8 -17 -37q0 -14 21 -33l20 -16q74 -45 74 -115q0 -65 -40.5 -108.5t-111.5 -43.5q-76 0 -124 52t-48 125
q0 182 205 307q138 82 344 82q149 0 272.5 -48t198 -144t74.5 -234q0 -157 -106 -261.5t-275 -140.5v-8q198 -25 314 -141.5t116 -300.5q0 -155 -85.5 -266.5t-229.5 -168.5t-307 -57q-243 0 -416.5 102.5t-173.5 315.5q0 78 49.5 135.5t130.5 57.5q69 0 118.5 -38.5
t49.5 -101.5q0 -62 -19 -86.5t-79 -60.5q-50 -24 -58 -49v-25q14 -59 152 -111q92 -32 209 -32q190 0 281 106t91 287q0 381 -331 381z" />
    <glyph glyph-name="copyright" unicode="&#xa9;" horiz-adv-x="3019" 
d="M3047 1475q-6 -415 -215 -769t-562.5 -560.5t-770.5 -206.5q-411 0 -764.5 207t-560.5 561t-207 768q0 418 207 772.5t561 562.5t764 209q420 0 776.5 -207t564 -562t207.5 -775zM2834 1475q0 362 -179 669t-486.5 484.5t-669.5 177.5q-361 0 -663.5 -180t-479 -487
t-176.5 -664q0 -360 178 -664t481.5 -481.5t659.5 -177.5q359 0 667 177.5t488 482t180 663.5zM2163 2220v-451h-131q-12 199 -127 317t-316 118q-191 0 -320.5 -98t-191 -257t-61.5 -346q0 -194 67.5 -367t205.5 -282t333 -109q150 0 284 84.5t199 219.5l103 -37
q-82 -199 -279.5 -306.5t-425.5 -107.5q-241 0 -429 111t-291 307.5t-103 441.5q0 256 109 456t307.5 310.5t455.5 110.5q275 0 611 -115z" />
    <glyph glyph-name="Aacute" unicode="&#xc1;" horiz-adv-x="2957" 
d="M393 504l991 2515h160l1086 -2654q31 -71 64 -107t72.5 -50t96.5 -17.5t131 -6.5v-184h-1257v184q276 10 344 25q33 3 59.5 29.5t26.5 60.5q0 23 -17 70l-241 594h-1106q-76 -189 -123 -332q-49 -139 -49 -213q0 -147 115 -188t303 -46v-184h-1082v184q304 6 426 320z
M881 1171h950l-483 1205zM1929 3592l-589 -372h-168l565 569q86 86 139 111q25 20 82 20q63 0 101 -38t38 -93q0 -44 -32 -90q-44 -54 -136 -107z" />
    <glyph glyph-name="Acircumflex" unicode="&#xc2;" horiz-adv-x="2957" 
d="M393 504l991 2515h160l1086 -2654q31 -71 64 -107t72.5 -50t96.5 -17.5t131 -6.5v-184h-1257v184q276 10 344 25q33 3 59.5 29.5t26.5 60.5q0 23 -17 70l-241 594h-1106q-76 -189 -123 -332q-49 -139 -49 -213q0 -147 115 -188t303 -46v-184h-1082v184q304 6 426 320z
M881 1171h950l-483 1205zM1483 3642l-500 -422h-143l512 680h258l512 -680h-143z" />
    <glyph glyph-name="Adieresis" unicode="&#xc4;" horiz-adv-x="2957" 
d="M393 504l991 2515h160l1086 -2654q31 -71 64 -107t72.5 -50t96.5 -17.5t131 -6.5v-184h-1257v184q276 10 344 25q33 3 59.5 29.5t26.5 60.5q0 23 -17 70l-241 594h-1106q-76 -189 -123 -332q-49 -139 -49 -213q0 -147 115 -188t303 -46v-184h-1082v184q304 6 426 320z
M881 1171h950l-483 1205zM1073 3285q-79 0 -141.5 63.5t-62.5 141.5q0 75 64 140t140 65q81 0 143 -62t62 -143q0 -85 -61 -145t-144 -60zM1889 3695q80 0 142 -62t62 -143q0 -85 -61 -145t-143 -60q-80 0 -142.5 63.5t-62.5 141.5q0 75 64 140t141 65z" />
    <glyph glyph-name="Agrave" unicode="&#xc0;" horiz-adv-x="2957" 
d="M393 504l991 2515h160l1086 -2654q31 -71 64 -107t72.5 -50t96.5 -17.5t131 -6.5v-184h-1257v184q276 10 344 25q33 3 59.5 29.5t26.5 60.5q0 23 -17 70l-241 594h-1106q-76 -189 -123 -332q-49 -139 -49 -213q0 -147 115 -188t303 -46v-184h-1082v184q304 6 426 320z
M881 1171h950l-483 1205zM1225 3789l565 -569h-168l-590 372q-163 99 -163 189q0 43 28 94q9 4 20 16t21 17q25 12 82 12q74 0 205 -131z" />
    <glyph glyph-name="Aring" unicode="&#xc5;" horiz-adv-x="2957" 
d="M393 504l991 2515h160l1086 -2654q31 -71 64 -107t72.5 -50t96.5 -17.5t131 -6.5v-184h-1257v184q276 10 344 25q33 3 59.5 29.5t26.5 60.5q0 23 -17 70l-241 594h-1106q-76 -189 -123 -332q-49 -139 -49 -213q0 -147 115 -188t303 -46v-184h-1082v184q304 6 426 320z
M881 1171h950l-483 1205zM1479 3199q-166 0 -286 121t-120 285t121.5 286.5t284.5 122.5q107 0 202 -55.5t151.5 -151t56.5 -202.5q0 -110 -56 -203.5t-151 -148t-203 -54.5zM1479 3867q-103 0 -180.5 -80t-77.5 -182q0 -100 79 -179t179 -79q102 0 182 77.5t80 180.5
q0 104 -79 183t-183 79z" />
    <glyph glyph-name="Atilde" unicode="&#xc3;" horiz-adv-x="2957" 
d="M393 504l991 2515h160l1086 -2654q31 -71 64 -107t72.5 -50t96.5 -17.5t131 -6.5v-184h-1257v184q276 10 344 25q33 3 59.5 29.5t26.5 60.5q0 23 -17 70l-241 594h-1106q-76 -189 -123 -332q-49 -139 -49 -213q0 -147 115 -188t303 -46v-184h-1082v184q304 6 426 320z
M881 1171h950l-483 1205zM2040 3756h119q0 -6 -2 -18t-2 -19q-5 -28 -20.5 -67.5t-20.5 -59.5q-99 -174 -193 -221q-75 -49 -192 -49q-91 0 -170.5 29t-214.5 94q-107 61 -189 61q-100 0 -151 -57q-34 -27 -78 -127h-123q39 205 189 328q69 58 163 78q25 8 78 8
q67 0 115 -17q83 -17 221 -90q32 -14 81 -35t86.5 -32t74.5 -11t78 13q118 57 151 192z" />
    <glyph glyph-name="Ccedilla" unicode="&#xc7;" horiz-adv-x="2957" 
d="M2298 2736l168 258h151l58 -1184l-176 -8q-85 291 -119 377q-72 177 -133 277.5t-174 193.5q-221 184 -512 184q-239 0 -424.5 -133t-276.5 -358q-87 -217 -115 -431t-28 -507q0 -1282 905 -1282q403 0 631.5 249.5t294.5 667.5l188 -32q-72 -506 -371.5 -787.5
t-803.5 -281.5q-300 0 -556 116.5t-440 321t-282.5 472.5t-98.5 560q0 664 361 1094q424 516 1011 516q214 0 409.5 -72t332.5 -211zM1131 -426l-29 20l172 406h139l-102 -266q55 12 119 12q155 0 225 -61q47 -29 53 -45q28 -35 37 -62q25 -29 25 -115q0 -120 -107 -233
q-94 -69 -187 -90t-231 -21q-163 0 -327 66l57 127l62 -21q16 -2 82.5 -15t105.5 -13q128 0 201 61q37 52 37 127q0 41 -22.5 76t-59.5 47q-42 16 -66 16q-127 0 -184 -16z" />
    <glyph glyph-name="Eacute" unicode="&#xc9;" horiz-adv-x="2957" 
d="M127 2773v184h2466l57 -1048h-172q-50 296 -120.5 467t-184 256t-287.5 113t-481 28h-82q-126 0 -184 -7.5t-88.5 -40.5t-30.5 -112v-987h147q271 0 399 129.5t146 431.5h184v-1347h-184q0 185 -50.5 318.5t-155.5 206.5t-261 73h-225v-1098q0 -46 41 -102
q43 -28 188 -37q86 -17 262 -17q222 0 336 21q211 20 340.5 114t200 242t123.5 369q1 6 11.5 54.5t25.5 109.5h168l-78 -1094h-2519v184h123q8 1 81.5 6.5t119 16t79 37t43.5 71.5q8 58 8 177v1982q0 119 -4 176q-9 59 -40 81.5t-95 29.5q-102 12 -307 12zM1929 3592
l-589 -372h-168l565 569q86 86 139 111q25 20 82 20q63 0 101 -38t38 -93q0 -44 -32 -90q-44 -54 -136 -107z" />
    <glyph glyph-name="Ecircumflex" unicode="&#xca;" horiz-adv-x="2957" 
d="M127 2773v184h2466l57 -1048h-172q-50 296 -120.5 467t-184 256t-287.5 113t-481 28h-82q-126 0 -184 -7.5t-88.5 -40.5t-30.5 -112v-987h147q271 0 399 129.5t146 431.5h184v-1347h-184q0 185 -50.5 318.5t-155.5 206.5t-261 73h-225v-1098q0 -46 41 -102
q43 -28 188 -37q86 -17 262 -17q222 0 336 21q211 20 340.5 114t200 242t123.5 369q1 6 11.5 54.5t25.5 109.5h168l-78 -1094h-2519v184h123q8 1 81.5 6.5t119 16t79 37t43.5 71.5q8 58 8 177v1982q0 119 -4 176q-9 59 -40 81.5t-95 29.5q-102 12 -307 12zM1483 3642
l-500 -422h-143l512 680h258l512 -680h-143z" />
    <glyph glyph-name="Edieresis" unicode="&#xcb;" horiz-adv-x="2957" 
d="M127 2773v184h2466l57 -1048h-172q-50 296 -120.5 467t-184 256t-287.5 113t-481 28h-82q-126 0 -184 -7.5t-88.5 -40.5t-30.5 -112v-987h147q271 0 399 129.5t146 431.5h184v-1347h-184q0 185 -50.5 318.5t-155.5 206.5t-261 73h-225v-1098q0 -46 41 -102
q43 -28 188 -37q86 -17 262 -17q222 0 336 21q211 20 340.5 114t200 242t123.5 369q1 6 11.5 54.5t25.5 109.5h168l-78 -1094h-2519v184h123q8 1 81.5 6.5t119 16t79 37t43.5 71.5q8 58 8 177v1982q0 119 -4 176q-9 59 -40 81.5t-95 29.5q-102 12 -307 12zM1073 3285
q-79 0 -141.5 63.5t-62.5 141.5q0 75 64 140t140 65q81 0 143 -62t62 -143q0 -85 -61 -145t-144 -60zM1889 3695q80 0 142 -62t62 -143q0 -85 -61 -145t-143 -60q-80 0 -142.5 63.5t-62.5 141.5q0 75 64 140t141 65z" />
    <glyph glyph-name="Egrave" unicode="&#xc8;" horiz-adv-x="2957" 
d="M127 2773v184h2466l57 -1048h-172q-50 296 -120.5 467t-184 256t-287.5 113t-481 28h-82q-126 0 -184 -7.5t-88.5 -40.5t-30.5 -112v-987h147q271 0 399 129.5t146 431.5h184v-1347h-184q0 185 -50.5 318.5t-155.5 206.5t-261 73h-225v-1098q0 -46 41 -102
q43 -28 188 -37q86 -17 262 -17q222 0 336 21q211 20 340.5 114t200 242t123.5 369q1 6 11.5 54.5t25.5 109.5h168l-78 -1094h-2519v184h123q8 1 81.5 6.5t119 16t79 37t43.5 71.5q8 58 8 177v1982q0 119 -4 176q-9 59 -40 81.5t-95 29.5q-102 12 -307 12zM1225 3789
l565 -569h-168l-590 372q-163 99 -163 189q0 43 28 94q9 4 20 16t21 17q25 12 82 12q74 0 205 -131z" />
    <glyph glyph-name="Iacute" unicode="&#xcd;" horiz-adv-x="1667" 
d="M1503 0h-1347v184q37 1 120.5 3t139.5 7t88 15q73 29 89.5 71t16.5 134v2138q0 114 -45 172q-67 45 -209 45q-11 0 -70 2t-126 2v184h1351v-184q-221 0 -331 -12q-78 -21 -115 -95q-8 -45 -8 -135v-2130q0 -69 4 -102q33 -55 41 -61q68 -50 209 -50q11 0 68 -2t124 -2
v-184zM1282 3592l-589 -372h-168l565 569q86 86 139 111q25 20 82 20q63 0 101 -38t38 -93q0 -44 -32 -90q-44 -54 -136 -107z" />
    <glyph glyph-name="Icircumflex" unicode="&#xce;" horiz-adv-x="1667" 
d="M1503 0h-1347v184q37 1 120.5 3t139.5 7t88 15q73 29 89.5 71t16.5 134v2138q0 114 -45 172q-67 45 -209 45q-11 0 -70 2t-126 2v184h1351v-184q-221 0 -331 -12q-78 -21 -115 -95q-8 -45 -8 -135v-2130q0 -69 4 -102q33 -55 41 -61q68 -50 209 -50q11 0 68 -2t124 -2
v-184zM836 3642l-500 -422h-143l512 680h258l512 -680h-143z" />
    <glyph glyph-name="Idieresis" unicode="&#xcf;" horiz-adv-x="1667" 
d="M1503 0h-1347v184q37 1 120.5 3t139.5 7t88 15q73 29 89.5 71t16.5 134v2138q0 114 -45 172q-67 45 -209 45q-11 0 -70 2t-126 2v184h1351v-184q-221 0 -331 -12q-78 -21 -115 -95q-8 -45 -8 -135v-2130q0 -69 4 -102q33 -55 41 -61q68 -50 209 -50q11 0 68 -2t124 -2
v-184zM426 3285q-79 0 -141.5 63.5t-62.5 141.5q0 75 64 140t140 65q81 0 143 -62t62 -143q0 -85 -61 -145t-144 -60zM1242 3695q80 0 142 -62t62 -143q0 -85 -61 -145t-143 -60q-80 0 -142.5 63.5t-62.5 141.5q0 75 64 140t141 65z" />
    <glyph glyph-name="Igrave" unicode="&#xcc;" horiz-adv-x="1667" 
d="M1503 0h-1347v184q37 1 120.5 3t139.5 7t88 15q73 29 89.5 71t16.5 134v2138q0 114 -45 172q-67 45 -209 45q-11 0 -70 2t-126 2v184h1351v-184q-221 0 -331 -12q-78 -21 -115 -95q-8 -45 -8 -135v-2130q0 -69 4 -102q33 -55 41 -61q68 -50 209 -50q11 0 68 -2t124 -2
v-184zM578 3789l565 -569h-168l-590 372q-163 99 -163 189q0 43 28 94q9 4 20 16t21 17q25 12 82 12q74 0 205 -131z" />
    <glyph glyph-name="Ntilde" unicode="&#xd1;" horiz-adv-x="3338" 
d="M1262 0h-1184v184q210 29 278 54q137 51 173 210t36 379v1811q-93 124 -286 131q-66 4 -201 4v184h856l1626 -2207h8v1552q-9 261 -105.5 357t-361.5 114v184h1151v-184q-198 -12 -296 -64.5t-134.5 -158.5t-44.5 -301v-2310h-160l-1835 2506h-8v-1695q0 -163 18 -265.5
t89 -193.5q67 -56 168 -82q73 -17 213 -25v-184zM2228 3756h119q0 -6 -2 -18t-2 -19q-5 -28 -20.5 -67.5t-20.5 -59.5q-99 -174 -193 -221q-75 -49 -192 -49q-91 0 -170.5 29t-214.5 94q-107 61 -189 61q-100 0 -151 -57q-34 -27 -78 -127h-123q39 205 189 328q69 58 163 78
q25 8 78 8q67 0 115 -17q83 -17 221 -90q32 -14 81 -35t86.5 -32t74.5 -11t78 13q118 57 151 192z" />
    <glyph glyph-name="Oacute" unicode="&#xd3;" horiz-adv-x="3187" 
d="M2478 1479q0 518 -170 936.5t-719 418.5q-498 0 -689 -396t-191 -959q0 -306 55 -600t252 -525t581 -231q498 0 689.5 396.5t191.5 959.5zM3002 1479q0 -241 -89 -508.5t-267 -504t-443.5 -382t-605.5 -145.5q-309 0 -571.5 126t-451 345t-289.5 496.5t-101 572.5
q0 237 90 508t267 505.5t443 380.5t605 146q309 0 572.5 -126t450.5 -343t288.5 -495.5t101.5 -575.5zM2043 3592l-589 -372h-168l565 569q86 86 139 111q25 20 82 20q63 0 101 -38t38 -93q0 -44 -32 -90q-44 -54 -136 -107z" />
    <glyph glyph-name="Ocircumflex" unicode="&#xd4;" horiz-adv-x="3187" 
d="M2478 1479q0 518 -170 936.5t-719 418.5q-498 0 -689 -396t-191 -959q0 -306 55 -600t252 -525t581 -231q498 0 689.5 396.5t191.5 959.5zM3002 1479q0 -241 -89 -508.5t-267 -504t-443.5 -382t-605.5 -145.5q-309 0 -571.5 126t-451 345t-289.5 496.5t-101 572.5
q0 237 90 508t267 505.5t443 380.5t605 146q309 0 572.5 -126t450.5 -343t288.5 -495.5t101.5 -575.5zM1597 3642l-500 -422h-143l512 680h258l512 -680h-143z" />
    <glyph glyph-name="Odieresis" unicode="&#xd6;" horiz-adv-x="3187" 
d="M2478 1479q0 518 -170 936.5t-719 418.5q-498 0 -689 -396t-191 -959q0 -306 55 -600t252 -525t581 -231q498 0 689.5 396.5t191.5 959.5zM3002 1479q0 -241 -89 -508.5t-267 -504t-443.5 -382t-605.5 -145.5q-309 0 -571.5 126t-451 345t-289.5 496.5t-101 572.5
q0 237 90 508t267 505.5t443 380.5t605 146q309 0 572.5 -126t450.5 -343t288.5 -495.5t101.5 -575.5zM1187 3285q-79 0 -141.5 63.5t-62.5 141.5q0 75 64 140t140 65q81 0 143 -62t62 -143q0 -85 -61 -145t-144 -60zM2003 3695q80 0 142 -62t62 -143q0 -85 -61 -145
t-143 -60q-80 0 -142.5 63.5t-62.5 141.5q0 75 64 140t141 65z" />
    <glyph glyph-name="Ograve" unicode="&#xd2;" horiz-adv-x="3187" 
d="M2478 1479q0 518 -170 936.5t-719 418.5q-498 0 -689 -396t-191 -959q0 -306 55 -600t252 -525t581 -231q498 0 689.5 396.5t191.5 959.5zM3002 1479q0 -241 -89 -508.5t-267 -504t-443.5 -382t-605.5 -145.5q-309 0 -571.5 126t-451 345t-289.5 496.5t-101 572.5
q0 237 90 508t267 505.5t443 380.5t605 146q309 0 572.5 -126t450.5 -343t288.5 -495.5t101.5 -575.5zM1339 3789l565 -569h-168l-590 372q-163 99 -163 189q0 43 28 94q9 4 20 16t21 17q25 12 82 12q74 0 205 -131z" />
    <glyph glyph-name="Otilde" unicode="&#xd5;" horiz-adv-x="3187" 
d="M2478 1479q0 518 -170 936.5t-719 418.5q-498 0 -689 -396t-191 -959q0 -306 55 -600t252 -525t581 -231q498 0 689.5 396.5t191.5 959.5zM3002 1479q0 -241 -89 -508.5t-267 -504t-443.5 -382t-605.5 -145.5q-309 0 -571.5 126t-451 345t-289.5 496.5t-101 572.5
q0 237 90 508t267 505.5t443 380.5t605 146q309 0 572.5 -126t450.5 -343t288.5 -495.5t101.5 -575.5zM2154 3756h119q0 -6 -2 -18t-2 -19q-5 -28 -20.5 -67.5t-20.5 -59.5q-99 -174 -193 -221q-75 -49 -192 -49q-91 0 -170.5 29t-214.5 94q-107 61 -189 61q-100 0 -151 -57
q-34 -27 -78 -127h-123q39 205 189 328q69 58 163 78q25 8 78 8q67 0 115 -17q83 -17 221 -90q32 -14 81 -35t86.5 -32t74.5 -11t78 13q118 57 151 192z" />
    <glyph glyph-name="Scaron" unicode="&#x160;" horiz-adv-x="2580" 
d="M233 -29l-24 1151l176 13q0 -9 4 -25t4 -25q52 -271 185 -490.5t345 -345.5t490 -126q310 0 483 147q201 167 201 389q0 99 -34.5 207.5t-96.5 173.5q-96 106 -311 164l-414 107q-100 25 -191 47.5t-183.5 53.5t-172.5 71t-157 98q-267 196 -267 586q0 404 246.5 628
t650.5 224q226 0 409.5 -69.5t344.5 -217.5l164 258h147l49 -1069h-176q-56 246 -176.5 453t-310.5 333.5t-438 126.5q-279 0 -435 -131q-167 -141 -167 -356q0 -366 483 -492l668 -176q180 -45 297 -111.5t219 -199.5q172 -222 172 -553q0 -201 -85 -380t-243 -300
q-247 -196 -676 -196q-96 0 -250 26.5t-233 59.5q-224 101 -365 229l-180 -283h-152zM1294 3478l496 422h143l-512 -680h-258l-512 680h143z" />
    <glyph glyph-name="Uacute" unicode="&#xda;" horiz-adv-x="3338" 
d="M70 2773v184h1368v-184q-40 -4 -171 -9.5t-202 -15.5q-35 -3 -64.5 -23t-29.5 -50v-1643q0 -240 36.5 -396t172.5 -280q131 -115 276.5 -159.5t341.5 -44.5q209 0 396.5 94.5t287.5 269.5q50 85 82.5 212.5t32.5 229.5v1307q0 194 -38.5 297t-140 151.5t-300.5 59.5v184
h1155v-184q-219 -1 -320.5 -82t-124 -207.5t-22.5 -361.5v-897q0 -213 -14.5 -363t-69.5 -302.5t-162 -280.5q-285 -340 -881 -340q-207 0 -376 32q-328 60 -521 242q-145 139 -201.5 269t-56.5 317v1773q0 79 -10.5 114t-50.5 54q-27 15 -75 21.5t-102.5 8.5t-84.5 3h-131z
M2117 3592l-589 -372h-168l565 569q86 86 139 111q25 20 82 20q63 0 101 -38t38 -93q0 -44 -32 -90q-44 -54 -136 -107z" />
    <glyph glyph-name="Ucircumflex" unicode="&#xdb;" horiz-adv-x="3338" 
d="M70 2773v184h1368v-184q-40 -4 -171 -9.5t-202 -15.5q-35 -3 -64.5 -23t-29.5 -50v-1643q0 -240 36.5 -396t172.5 -280q131 -115 276.5 -159.5t341.5 -44.5q209 0 396.5 94.5t287.5 269.5q50 85 82.5 212.5t32.5 229.5v1307q0 194 -38.5 297t-140 151.5t-300.5 59.5v184
h1155v-184q-219 -1 -320.5 -82t-124 -207.5t-22.5 -361.5v-897q0 -213 -14.5 -363t-69.5 -302.5t-162 -280.5q-285 -340 -881 -340q-207 0 -376 32q-328 60 -521 242q-145 139 -201.5 269t-56.5 317v1773q0 79 -10.5 114t-50.5 54q-27 15 -75 21.5t-102.5 8.5t-84.5 3h-131z
M1671 3642l-500 -422h-143l512 680h258l512 -680h-143z" />
    <glyph glyph-name="Udieresis" unicode="&#xdc;" horiz-adv-x="3338" 
d="M70 2773v184h1368v-184q-40 -4 -171 -9.5t-202 -15.5q-35 -3 -64.5 -23t-29.5 -50v-1643q0 -240 36.5 -396t172.5 -280q131 -115 276.5 -159.5t341.5 -44.5q209 0 396.5 94.5t287.5 269.5q50 85 82.5 212.5t32.5 229.5v1307q0 194 -38.5 297t-140 151.5t-300.5 59.5v184
h1155v-184q-219 -1 -320.5 -82t-124 -207.5t-22.5 -361.5v-897q0 -213 -14.5 -363t-69.5 -302.5t-162 -280.5q-285 -340 -881 -340q-207 0 -376 32q-328 60 -521 242q-145 139 -201.5 269t-56.5 317v1773q0 79 -10.5 114t-50.5 54q-27 15 -75 21.5t-102.5 8.5t-84.5 3h-131z
M1261 3285q-79 0 -141.5 63.5t-62.5 141.5q0 75 64 140t140 65q81 0 143 -62t62 -143q0 -85 -61 -145t-144 -60zM2077 3695q80 0 142 -62t62 -143q0 -85 -61 -145t-143 -60q-80 0 -142.5 63.5t-62.5 141.5q0 75 64 140t141 65z" />
    <glyph glyph-name="Ugrave" unicode="&#xd9;" horiz-adv-x="3338" 
d="M70 2773v184h1368v-184q-40 -4 -171 -9.5t-202 -15.5q-35 -3 -64.5 -23t-29.5 -50v-1643q0 -240 36.5 -396t172.5 -280q131 -115 276.5 -159.5t341.5 -44.5q209 0 396.5 94.5t287.5 269.5q50 85 82.5 212.5t32.5 229.5v1307q0 194 -38.5 297t-140 151.5t-300.5 59.5v184
h1155v-184q-219 -1 -320.5 -82t-124 -207.5t-22.5 -361.5v-897q0 -213 -14.5 -363t-69.5 -302.5t-162 -280.5q-285 -340 -881 -340q-207 0 -376 32q-328 60 -521 242q-145 139 -201.5 269t-56.5 317v1773q0 79 -10.5 114t-50.5 54q-27 15 -75 21.5t-102.5 8.5t-84.5 3h-131z
M1413 3789l565 -569h-168l-590 372q-163 99 -163 189q0 43 28 94q9 4 20 16t21 17q25 12 82 12q74 0 205 -131z" />
    <glyph glyph-name="Yacute" unicode="&#xdd;" horiz-adv-x="2884" 
d="M1257 2957v-184h-131q-9 0 -45 2t-61 2q-135 0 -156 -41q-12 -18 -12 -41q0 -33 12 -57q5 -20 45 -90l688 -1102l484 860q59 112 82 164q16 74 16 110q0 46 -12 82q-41 50 -58 62q-99 40 -344 49v184h1155v-184q-151 -6 -249.5 -48t-167.5 -122.5t-148 -222.5l-651 -1163
v-779q0 -120 13.5 -167t62 -64.5t170.5 -22.5h229v-184h-1405v184h123q71 2 144.5 5t133 24t74.5 74q8 65 8 200v693l-823 1306q-139 229 -217 258q-71 29 -172 29h-98v184h1310zM1892 3592l-589 -372h-168l565 569q86 86 139 111q25 20 82 20q63 0 101 -38t38 -93
q0 -44 -32 -90q-44 -54 -136 -107z" />
    <glyph glyph-name="Ydieresis" unicode="&#x178;" horiz-adv-x="2884" 
d="M1257 2957v-184h-131q-9 0 -45 2t-61 2q-135 0 -156 -41q-12 -18 -12 -41q0 -33 12 -57q5 -20 45 -90l688 -1102l484 860q59 112 82 164q16 74 16 110q0 46 -12 82q-41 50 -58 62q-99 40 -344 49v184h1155v-184q-151 -6 -249.5 -48t-167.5 -122.5t-148 -222.5l-651 -1163
v-779q0 -120 13.5 -167t62 -64.5t170.5 -22.5h229v-184h-1405v184h123q71 2 144.5 5t133 24t74.5 74q8 65 8 200v693l-823 1306q-139 229 -217 258q-71 29 -172 29h-98v184h1310zM1036 3285q-79 0 -141.5 63.5t-62.5 141.5q0 75 64 140t140 65q81 0 143 -62t62 -143
q0 -85 -61 -145t-144 -60zM1852 3695q80 0 142 -62t62 -143q0 -85 -61 -145t-143 -60q-80 0 -142.5 63.5t-62.5 141.5q0 75 64 140t141 65z" />
    <glyph glyph-name="Zcaron" unicode="&#x17d;" horiz-adv-x="2503" 
d="M385 1917h-168l74 1040h2031v-155l-1691 -2618h635q350 0 536 103q112 64 163 154t116 272q41 124 57 229q26 99 37 193l180 -13l-74 -1122h-2183v160l1684 2613h-561q-310 0 -467 -90.5t-223.5 -254.5t-145.5 -511zM1253 3478l496 422h143l-512 -680h-258l-512 680h143z
" />
    <glyph glyph-name="aacute" unicode="&#xe1;" 
d="M1847 1278l-12 -709q0 -114 4 -176q9 -131 82 -168q42 -20 135 -20q21 6 51 17t64 24q53 -10 53 -62q-31 -98 -142.5 -159.5t-221.5 -61.5q-151 0 -237 75t-128 228q-132 -158 -328.5 -242.5t-408.5 -84.5q-160 0 -291.5 51.5t-209 161t-77.5 274.5q0 565 1295 750
q0 192 -5 290q-15 312 -438 312q-256 0 -352 -86q-29 -23 -29 -54q0 -21 29 -65q61 -120 61 -168q0 -201 -229 -201q-105 0 -161 74t-56 184q0 126 87.5 232t211.5 161q230 107 500 107q222 0 393 -57q228 -82 294 -220.5t66 -406.5zM1475 1012q-94 -17 -273.5 -51.5
t-313 -88.5t-220 -154.5t-86.5 -254.5q0 -142 101 -231t243 -89q125 0 247.5 65t202.5 169q72 93 83 172.5t16 281.5v181zM1589 2535l-589 -372h-168l565 569q86 86 139 111q25 20 82 20q63 0 101 -38t38 -93q0 -44 -32 -90q-44 -54 -136 -107z" />
    <glyph glyph-name="acircumflex" unicode="&#xe2;" 
d="M1847 1278l-12 -709q0 -114 4 -176q9 -131 82 -168q42 -20 135 -20q21 6 51 17t64 24q53 -10 53 -62q-31 -98 -142.5 -159.5t-221.5 -61.5q-151 0 -237 75t-128 228q-132 -158 -328.5 -242.5t-408.5 -84.5q-160 0 -291.5 51.5t-209 161t-77.5 274.5q0 565 1295 750
q0 192 -5 290q-15 312 -438 312q-256 0 -352 -86q-29 -23 -29 -54q0 -21 29 -65q61 -120 61 -168q0 -201 -229 -201q-105 0 -161 74t-56 184q0 126 87.5 232t211.5 161q230 107 500 107q222 0 393 -57q228 -82 294 -220.5t66 -406.5zM1475 1012q-94 -17 -273.5 -51.5
t-313 -88.5t-220 -154.5t-86.5 -254.5q0 -142 101 -231t243 -89q125 0 247.5 65t202.5 169q72 93 83 172.5t16 281.5v181zM1143 2585l-500 -422h-143l512 680h258l512 -680h-143z" />
    <glyph glyph-name="adieresis" unicode="&#xe4;" 
d="M1847 1278l-12 -709q0 -114 4 -176q9 -131 82 -168q42 -20 135 -20q21 6 51 17t64 24q53 -10 53 -62q-31 -98 -142.5 -159.5t-221.5 -61.5q-151 0 -237 75t-128 228q-132 -158 -328.5 -242.5t-408.5 -84.5q-160 0 -291.5 51.5t-209 161t-77.5 274.5q0 565 1295 750
q0 192 -5 290q-15 312 -438 312q-256 0 -352 -86q-29 -23 -29 -54q0 -21 29 -65q61 -120 61 -168q0 -201 -229 -201q-105 0 -161 74t-56 184q0 126 87.5 232t211.5 161q230 107 500 107q222 0 393 -57q228 -82 294 -220.5t66 -406.5zM1475 1012q-94 -17 -273.5 -51.5
t-313 -88.5t-220 -154.5t-86.5 -254.5q0 -142 101 -231t243 -89q125 0 247.5 65t202.5 169q72 93 83 172.5t16 281.5v181zM733 2228q-79 0 -141.5 63.5t-62.5 141.5q0 75 64 140t140 65q81 0 143 -62t62 -143q0 -85 -61 -145t-144 -60zM1549 2638q80 0 142 -62t62 -143
q0 -85 -61 -145t-143 -60q-80 0 -142.5 63.5t-62.5 141.5q0 75 64 140t141 65z" />
    <glyph glyph-name="agrave" unicode="&#xe0;" 
d="M1847 1278l-12 -709q0 -114 4 -176q9 -131 82 -168q42 -20 135 -20q21 6 51 17t64 24q53 -10 53 -62q-31 -98 -142.5 -159.5t-221.5 -61.5q-151 0 -237 75t-128 228q-132 -158 -328.5 -242.5t-408.5 -84.5q-160 0 -291.5 51.5t-209 161t-77.5 274.5q0 565 1295 750
q0 192 -5 290q-15 312 -438 312q-256 0 -352 -86q-29 -23 -29 -54q0 -21 29 -65q61 -120 61 -168q0 -201 -229 -201q-105 0 -161 74t-56 184q0 126 87.5 232t211.5 161q230 107 500 107q222 0 393 -57q228 -82 294 -220.5t66 -406.5zM1475 1012q-94 -17 -273.5 -51.5
t-313 -88.5t-220 -154.5t-86.5 -254.5q0 -142 101 -231t243 -89q125 0 247.5 65t202.5 169q72 93 83 172.5t16 281.5v181zM885 2732l565 -569h-168l-590 372q-163 99 -163 189q0 43 28 94q9 4 20 16t21 17q25 12 82 12q74 0 205 -131z" />
    <glyph glyph-name="aring" unicode="&#xe5;" 
d="M1847 1278l-12 -709q0 -114 4 -176q9 -131 82 -168q42 -20 135 -20q21 6 51 17t64 24q53 -10 53 -62q-31 -98 -142.5 -159.5t-221.5 -61.5q-151 0 -237 75t-128 228q-132 -158 -328.5 -242.5t-408.5 -84.5q-160 0 -291.5 51.5t-209 161t-77.5 274.5q0 565 1295 750
q0 192 -5 290q-15 312 -438 312q-256 0 -352 -86q-29 -23 -29 -54q0 -21 29 -65q61 -120 61 -168q0 -201 -229 -201q-105 0 -161 74t-56 184q0 126 87.5 232t211.5 161q230 107 500 107q222 0 393 -57q228 -82 294 -220.5t66 -406.5zM1475 1012q-94 -17 -273.5 -51.5
t-313 -88.5t-220 -154.5t-86.5 -254.5q0 -142 101 -231t243 -89q125 0 247.5 65t202.5 169q72 93 83 172.5t16 281.5v181zM1139 2142q-166 0 -286 121t-120 285t121.5 286.5t284.5 122.5q107 0 202 -55.5t151.5 -151t56.5 -202.5q0 -110 -56 -203.5t-151 -148t-203 -54.5z
M1139 2810q-103 0 -180.5 -80t-77.5 -182q0 -100 79 -179t179 -79q102 0 182 77.5t80 180.5q0 104 -79 183t-183 79z" />
    <glyph glyph-name="atilde" unicode="&#xe3;" 
d="M1847 1278l-12 -709q0 -114 4 -176q9 -131 82 -168q42 -20 135 -20q21 6 51 17t64 24q53 -10 53 -62q-31 -98 -142.5 -159.5t-221.5 -61.5q-151 0 -237 75t-128 228q-132 -158 -328.5 -242.5t-408.5 -84.5q-160 0 -291.5 51.5t-209 161t-77.5 274.5q0 565 1295 750
q0 192 -5 290q-15 312 -438 312q-256 0 -352 -86q-29 -23 -29 -54q0 -21 29 -65q61 -120 61 -168q0 -201 -229 -201q-105 0 -161 74t-56 184q0 126 87.5 232t211.5 161q230 107 500 107q222 0 393 -57q228 -82 294 -220.5t66 -406.5zM1475 1012q-94 -17 -273.5 -51.5
t-313 -88.5t-220 -154.5t-86.5 -254.5q0 -142 101 -231t243 -89q125 0 247.5 65t202.5 169q72 93 83 172.5t16 281.5v181zM1700 2699h119q0 -6 -2 -18t-2 -19q-5 -28 -20.5 -67.5t-20.5 -59.5q-99 -174 -193 -221q-75 -49 -192 -49q-91 0 -170.5 29t-214.5 94
q-107 61 -189 61q-100 0 -151 -57q-34 -27 -78 -127h-123q39 205 189 328q69 58 163 78q25 8 78 8q67 0 115 -17q83 -17 221 -90q32 -14 81 -35t86.5 -32t74.5 -11t78 13q118 57 151 192z" />
    <glyph glyph-name="ccedilla" unicode="&#xe7;" horiz-adv-x="1819" 
d="M1597 594l148 -62q-171 -459 -492 -548q-148 -45 -278 -45q-247 0 -438.5 132.5t-294.5 350.5t-103 463q0 310 105 553.5t317.5 383.5t523.5 140q263 0 451 -160q160 -136 160 -299q0 -128 -59 -211.5t-183 -83.5q-104 0 -175 61.5t-71 164.5q0 52 14.5 79t59.5 93
q37 37 37 61q0 62 -85.5 96.5t-152.5 34.5q-275 0 -399.5 -253t-124.5 -562q0 -336 126.5 -567.5t434.5 -231.5q326 0 479 410zM561 -426l-29 20l172 406h139l-102 -266q55 12 119 12q155 0 225 -61q47 -29 53 -45q28 -35 37 -62q25 -29 25 -115q0 -120 -107 -233
q-94 -69 -187 -90t-231 -21q-163 0 -327 66l57 127l62 -21q16 -2 82.5 -15t105.5 -13q128 0 201 61q37 52 37 127q0 41 -22.5 76t-59.5 47q-42 16 -66 16q-127 0 -184 -16z" />
    <glyph glyph-name="eacute" unicode="&#xe9;" horiz-adv-x="2048" 
d="M1901 922h-1340q0 -213 61 -390t192.5 -281t328.5 -104q323 0 532 283q46 78 49 86q18 22 41 70l140 -78q-130 -286 -331 -427.5t-501 -141.5q-439 0 -692 282q-134 150 -186 315.5t-52 385.5q0 274 112.5 512.5t321.5 383t484 144.5q436 0 684 -414q56 -91 81.5 -192.5
t53.5 -257.5q11 -53 21 -176zM569 1090h688q89 0 131.5 8.5t62 40t19.5 102.5q0 229 -102.5 393t-318.5 164q-244 0 -351 -210t-129 -498zM1474 2535l-589 -372h-168l565 569q86 86 139 111q25 20 82 20q63 0 101 -38t38 -93q0 -44 -32 -90q-44 -54 -136 -107z" />
    <glyph glyph-name="ecircumflex" unicode="&#xea;" horiz-adv-x="2048" 
d="M1901 922h-1340q0 -213 61 -390t192.5 -281t328.5 -104q323 0 532 283q46 78 49 86q18 22 41 70l140 -78q-130 -286 -331 -427.5t-501 -141.5q-439 0 -692 282q-134 150 -186 315.5t-52 385.5q0 274 112.5 512.5t321.5 383t484 144.5q436 0 684 -414q56 -91 81.5 -192.5
t53.5 -257.5q11 -53 21 -176zM569 1090h688q89 0 131.5 8.5t62 40t19.5 102.5q0 229 -102.5 393t-318.5 164q-244 0 -351 -210t-129 -498zM1028 2585l-500 -422h-143l512 680h258l512 -680h-143z" />
    <glyph glyph-name="edieresis" unicode="&#xeb;" horiz-adv-x="2048" 
d="M1901 922h-1340q0 -213 61 -390t192.5 -281t328.5 -104q323 0 532 283q46 78 49 86q18 22 41 70l140 -78q-130 -286 -331 -427.5t-501 -141.5q-439 0 -692 282q-134 150 -186 315.5t-52 385.5q0 274 112.5 512.5t321.5 383t484 144.5q436 0 684 -414q56 -91 81.5 -192.5
t53.5 -257.5q11 -53 21 -176zM569 1090h688q89 0 131.5 8.5t62 40t19.5 102.5q0 229 -102.5 393t-318.5 164q-244 0 -351 -210t-129 -498zM618 2228q-79 0 -141.5 63.5t-62.5 141.5q0 75 64 140t140 65q81 0 143 -62t62 -143q0 -85 -61 -145t-144 -60zM1434 2638
q80 0 142 -62t62 -143q0 -85 -61 -145t-143 -60q-80 0 -142.5 63.5t-62.5 141.5q0 75 64 140t141 65z" />
    <glyph glyph-name="egrave" unicode="&#xe8;" horiz-adv-x="2048" 
d="M1901 922h-1340q0 -213 61 -390t192.5 -281t328.5 -104q323 0 532 283q46 78 49 86q18 22 41 70l140 -78q-130 -286 -331 -427.5t-501 -141.5q-439 0 -692 282q-134 150 -186 315.5t-52 385.5q0 274 112.5 512.5t321.5 383t484 144.5q436 0 684 -414q56 -91 81.5 -192.5
t53.5 -257.5q11 -53 21 -176zM569 1090h688q89 0 131.5 8.5t62 40t19.5 102.5q0 229 -102.5 393t-318.5 164q-244 0 -351 -210t-129 -498zM770 2732l565 -569h-168l-590 372q-163 99 -163 189q0 43 28 94q9 4 20 16t21 17q25 12 82 12q74 0 205 -131z" />
    <glyph glyph-name="iacute" unicode="&#xed;" horiz-adv-x="1290" 
d="M1184 0h-1078v143h111q23 3 73 5.5t82 8t58 19.5q33 86 33 283v942q0 155 -21 229q-11 19 -30 28.5t-41 13t-52 7.5l-245 9v172l766 41v-1573q0 -111 19 -140.5t99 -35.5q133 -9 226 -9v-143zM1093 2535l-589 -372h-168l565 569q86 86 139 111q25 20 82 20q63 0 101 -38
t38 -93q0 -44 -32 -90q-44 -54 -136 -107z" />
    <glyph glyph-name="icircumflex" unicode="&#xee;" horiz-adv-x="1290" 
d="M1184 0h-1078v143h111q23 3 73 5.5t82 8t58 19.5q33 86 33 283v942q0 155 -21 229q-11 19 -30 28.5t-41 13t-52 7.5l-245 9v172l766 41v-1573q0 -111 19 -140.5t99 -35.5q133 -9 226 -9v-143zM647 2585l-500 -422h-143l512 680h258l512 -680h-143z" />
    <glyph glyph-name="idieresis" unicode="&#xef;" horiz-adv-x="1290" 
d="M1184 0h-1078v143h111q23 3 73 5.5t82 8t58 19.5q33 86 33 283v942q0 155 -21 229q-11 19 -30 28.5t-41 13t-52 7.5l-245 9v172l766 41v-1573q0 -111 19 -140.5t99 -35.5q133 -9 226 -9v-143zM237 2228q-79 0 -141.5 63.5t-62.5 141.5q0 75 64 140t140 65q81 0 143 -62
t62 -143q0 -85 -61 -145t-144 -60zM1053 2638q80 0 142 -62t62 -143q0 -85 -61 -145t-143 -60q-80 0 -142.5 63.5t-62.5 141.5q0 75 64 140t141 65z" />
    <glyph glyph-name="igrave" unicode="&#xec;" horiz-adv-x="1290" 
d="M1184 0h-1078v143h111q23 3 73 5.5t82 8t58 19.5q33 86 33 283v942q0 155 -21 229q-11 19 -30 28.5t-41 13t-52 7.5l-245 9v172l766 41v-1573q0 -111 19 -140.5t99 -35.5q133 -9 226 -9v-143zM389 2732l565 -569h-168l-590 372q-163 99 -163 189q0 43 28 94q9 4 20 16
t21 17q25 12 82 12q74 0 205 -131z" />
    <glyph glyph-name="ntilde" unicode="&#xf1;" horiz-adv-x="2503" 
d="M111 0v143h102q22 3 69 5.5t77.5 8t54.5 19.5q32 16 32 82v1143q0 155 -20 229q-9 20 -24.5 29t-35.5 12.5t-47 7.5l-208 9v172l704 41v-349h8q233 410 627 410q171 0 346 -96t252 -314q53 -145 53 -389v-880q0 -11 2 -31t2 -31q6 -57 74 -65q30 -2 88 -4t88 -5l74 -4
v-143h-1036v143q80 0 204 9q71 0 99 32q6 5 13 20t11 21q4 21 4 62v889q0 131 -20 274q-17 119 -126.5 194.5t-246.5 75.5q-129 0 -242 -75.5t-180 -194.5q-57 -103 -71.5 -206t-14.5 -269v-684q2 -10 4 -34.5t4 -35.5q7 -46 61.5 -60t184.5 -14l78 -4v-143h-1044z
M1810 2699h119q0 -6 -2 -18t-2 -19q-5 -28 -20.5 -67.5t-20.5 -59.5q-99 -174 -193 -221q-75 -49 -192 -49q-91 0 -170.5 29t-214.5 94q-107 61 -189 61q-100 0 -151 -57q-34 -27 -78 -127h-123q39 205 189 328q69 58 163 78q25 8 78 8q67 0 115 -17q83 -17 221 -90
q32 -14 81 -35t86.5 -32t74.5 -11t78 13q118 57 151 192z" />
    <glyph glyph-name="oacute" unicode="&#xf3;" horiz-adv-x="2048" 
d="M1028 1798q-471 0 -471 -868q0 -311 97 -573.5t354 -262.5q200 0 307 130t141.5 312t34.5 394q0 373 -74 569q-117 299 -389 299zM1012 -61q-268 0 -466.5 137t-302.5 366t-104 492q0 221 53 384t185 329q118 146 281.5 230.5t345.5 84.5q277 0 484.5 -141.5t314 -377.5
t106.5 -513q0 -274 -106.5 -501t-310 -358.5t-480.5 -131.5zM1474 2535l-589 -372h-168l565 569q86 86 139 111q25 20 82 20q63 0 101 -38t38 -93q0 -44 -32 -90q-44 -54 -136 -107z" />
    <glyph glyph-name="ocircumflex" unicode="&#xf4;" horiz-adv-x="2048" 
d="M1028 1798q-471 0 -471 -868q0 -311 97 -573.5t354 -262.5q200 0 307 130t141.5 312t34.5 394q0 373 -74 569q-117 299 -389 299zM1012 -61q-268 0 -466.5 137t-302.5 366t-104 492q0 221 53 384t185 329q118 146 281.5 230.5t345.5 84.5q277 0 484.5 -141.5t314 -377.5
t106.5 -513q0 -274 -106.5 -501t-310 -358.5t-480.5 -131.5zM1028 2585l-500 -422h-143l512 680h258l512 -680h-143z" />
    <glyph glyph-name="odieresis" unicode="&#xf6;" horiz-adv-x="2048" 
d="M1028 1798q-471 0 -471 -868q0 -311 97 -573.5t354 -262.5q200 0 307 130t141.5 312t34.5 394q0 373 -74 569q-117 299 -389 299zM1012 -61q-268 0 -466.5 137t-302.5 366t-104 492q0 221 53 384t185 329q118 146 281.5 230.5t345.5 84.5q277 0 484.5 -141.5t314 -377.5
t106.5 -513q0 -274 -106.5 -501t-310 -358.5t-480.5 -131.5zM618 2228q-79 0 -141.5 63.5t-62.5 141.5q0 75 64 140t140 65q81 0 143 -62t62 -143q0 -85 -61 -145t-144 -60zM1434 2638q80 0 142 -62t62 -143q0 -85 -61 -145t-143 -60q-80 0 -142.5 63.5t-62.5 141.5
q0 75 64 140t141 65z" />
    <glyph glyph-name="ograve" unicode="&#xf2;" horiz-adv-x="2048" 
d="M1028 1798q-471 0 -471 -868q0 -311 97 -573.5t354 -262.5q200 0 307 130t141.5 312t34.5 394q0 373 -74 569q-117 299 -389 299zM1012 -61q-268 0 -466.5 137t-302.5 366t-104 492q0 221 53 384t185 329q118 146 281.5 230.5t345.5 84.5q277 0 484.5 -141.5t314 -377.5
t106.5 -513q0 -274 -106.5 -501t-310 -358.5t-480.5 -131.5zM770 2732l565 -569h-168l-590 372q-163 99 -163 189q0 43 28 94q9 4 20 16t21 17q25 12 82 12q74 0 205 -131z" />
    <glyph glyph-name="otilde" unicode="&#xf5;" horiz-adv-x="2048" 
d="M1028 1798q-471 0 -471 -868q0 -311 97 -573.5t354 -262.5q200 0 307 130t141.5 312t34.5 394q0 373 -74 569q-117 299 -389 299zM1012 -61q-268 0 -466.5 137t-302.5 366t-104 492q0 221 53 384t185 329q118 146 281.5 230.5t345.5 84.5q277 0 484.5 -141.5t314 -377.5
t106.5 -513q0 -274 -106.5 -501t-310 -358.5t-480.5 -131.5zM1585 2699h119q0 -6 -2 -18t-2 -19q-5 -28 -20.5 -67.5t-20.5 -59.5q-99 -174 -193 -221q-75 -49 -192 -49q-91 0 -170.5 29t-214.5 94q-107 61 -189 61q-100 0 -151 -57q-34 -27 -78 -127h-123q39 205 189 328
q69 58 163 78q25 8 78 8q67 0 115 -17q83 -17 221 -90q32 -14 81 -35t86.5 -32t74.5 -11t78 13q118 57 151 192z" />
    <glyph glyph-name="scaron" unicode="&#x161;" horiz-adv-x="1896" 
d="M1335 1794l123 152h135v-684h-147q-66 246 -216.5 391t-389.5 145q-97 0 -182.5 -33t-140 -101.5t-54.5 -164.5q0 -144 116 -203.5t310 -99.5l241 -53q152 -27 247.5 -63.5t187.5 -121.5q159 -153 159 -393q0 -160 -45 -268t-163 -211q-79 -67 -211 -107t-248 -40
q-346 0 -570 200l-143 -180h-135v778h151q168 -635 709 -635q152 0 281 85.5t129 230.5q0 189 -209 274q-117 44 -389 107q-35 7 -76 17.5t-96 23.5q-142 40 -221 75.5t-140 112.5q-110 144 -110 365q0 261 166 415t432 154q296 0 499 -168zM950 2421l496 422h143l-512 -680
h-258l-512 680h143z" />
    <glyph glyph-name="uacute" unicode="&#xfa;" horiz-adv-x="2503" 
d="M86 1688v172l713 41v-1172q0 -151 4 -229q6 -154 104 -235t256 -81q148 0 265 71.5t182 203.5q58 126 67.5 212t18.5 312v578q-6 62 -23 83.5t-76 30.5q-57 8 -128 9.5t-171 3.5v172l775 41v-1446q0 -148 45 -193q25 -31 61 -37q30 -2 85 -4t83 -4h86v-176l-737 -41v319
h-8q-95 -173 -261.5 -276.5t-361.5 -103.5q-158 0 -361 85t-245 295q-37 56 -37 349v880q0 70 -29 94q-46 46 -225 46h-82zM1699 2535l-589 -372h-168l565 569q86 86 139 111q25 20 82 20q63 0 101 -38t38 -93q0 -44 -32 -90q-44 -54 -136 -107z" />
    <glyph glyph-name="ucircumflex" unicode="&#xfb;" horiz-adv-x="2503" 
d="M86 1688v172l713 41v-1172q0 -151 4 -229q6 -154 104 -235t256 -81q148 0 265 71.5t182 203.5q58 126 67.5 212t18.5 312v578q-6 62 -23 83.5t-76 30.5q-57 8 -128 9.5t-171 3.5v172l775 41v-1446q0 -148 45 -193q25 -31 61 -37q30 -2 85 -4t83 -4h86v-176l-737 -41v319
h-8q-95 -173 -261.5 -276.5t-361.5 -103.5q-158 0 -361 85t-245 295q-37 56 -37 349v880q0 70 -29 94q-46 46 -225 46h-82zM1253 2585l-500 -422h-143l512 680h258l512 -680h-143z" />
    <glyph glyph-name="udieresis" unicode="&#xfc;" horiz-adv-x="2503" 
d="M86 1688v172l713 41v-1172q0 -151 4 -229q6 -154 104 -235t256 -81q148 0 265 71.5t182 203.5q58 126 67.5 212t18.5 312v578q-6 62 -23 83.5t-76 30.5q-57 8 -128 9.5t-171 3.5v172l775 41v-1446q0 -148 45 -193q25 -31 61 -37q30 -2 85 -4t83 -4h86v-176l-737 -41v319
h-8q-95 -173 -261.5 -276.5t-361.5 -103.5q-158 0 -361 85t-245 295q-37 56 -37 349v880q0 70 -29 94q-46 46 -225 46h-82zM843 2228q-79 0 -141.5 63.5t-62.5 141.5q0 75 64 140t140 65q81 0 143 -62t62 -143q0 -85 -61 -145t-144 -60zM1659 2638q80 0 142 -62t62 -143
q0 -85 -61 -145t-143 -60q-80 0 -142.5 63.5t-62.5 141.5q0 75 64 140t141 65z" />
    <glyph glyph-name="ugrave" unicode="&#xf9;" horiz-adv-x="2503" 
d="M86 1688v172l713 41v-1172q0 -151 4 -229q6 -154 104 -235t256 -81q148 0 265 71.5t182 203.5q58 126 67.5 212t18.5 312v578q-6 62 -23 83.5t-76 30.5q-57 8 -128 9.5t-171 3.5v172l775 41v-1446q0 -148 45 -193q25 -31 61 -37q30 -2 85 -4t83 -4h86v-176l-737 -41v319
h-8q-95 -173 -261.5 -276.5t-361.5 -103.5q-158 0 -361 85t-245 295q-37 56 -37 349v880q0 70 -29 94q-46 46 -225 46h-82zM995 2732l565 -569h-168l-590 372q-163 99 -163 189q0 43 28 94q9 4 20 16t21 17q25 12 82 12q74 0 205 -131z" />
    <glyph glyph-name="yacute" unicode="&#xfd;" horiz-adv-x="2200" 
d="M434 -582l-8 -12q0 -24 4 -37q16 -8 21 -16q101 0 193.5 73.5t164.5 179t139 237.5t96 190l-659 1503q-43 97 -79 142t-91 62t-162 17v144h967v-144l-74 -4q-113 0 -157 -17.5t-44 -80.5q0 -38 46 -123l442 -1045l336 844l41 103q1 4 25 67t24 84q0 108 -49.5 138.5
t-167.5 33.5h-74v144h807v-144q-151 -3 -221.5 -80.5t-143.5 -251.5l-507 -1253l-136 -295q-325 -717 -778 -717q-158 0 -267.5 82t-109.5 238q0 102 73 167.5t177 65.5q71 0 132 -52t61 -120q0 -77 -21 -123zM1548 2535l-589 -372h-168l565 569q86 86 139 111q25 20 82 20
q63 0 101 -38t38 -93q0 -44 -32 -90q-44 -54 -136 -107z" />
    <glyph glyph-name="ydieresis" unicode="&#xff;" horiz-adv-x="2200" 
d="M434 -582l-8 -12q0 -24 4 -37q16 -8 21 -16q101 0 193.5 73.5t164.5 179t139 237.5t96 190l-659 1503q-43 97 -79 142t-91 62t-162 17v144h967v-144l-74 -4q-113 0 -157 -17.5t-44 -80.5q0 -38 46 -123l442 -1045l336 844l41 103q1 4 25 67t24 84q0 108 -49.5 138.5
t-167.5 33.5h-74v144h807v-144q-151 -3 -221.5 -80.5t-143.5 -251.5l-507 -1253l-136 -295q-325 -717 -778 -717q-158 0 -267.5 82t-109.5 238q0 102 73 167.5t177 65.5q71 0 132 -52t61 -120q0 -77 -21 -123zM692 2228q-79 0 -141.5 63.5t-62.5 141.5q0 75 64 140t140 65
q81 0 143 -62t62 -143q0 -85 -61 -145t-144 -60zM1508 2638q80 0 142 -62t62 -143q0 -85 -61 -145t-143 -60q-80 0 -142.5 63.5t-62.5 141.5q0 75 64 140t141 65z" />
    <glyph glyph-name="zcaron" unicode="&#x17e;" horiz-adv-x="1970" 
d="M1626 729h156l-41 -729h-1581v152l1134 1572h-348q-143 0 -239.5 -26t-174.5 -109q-118 -118 -135 -348v-24h-155l37 684h1478v-144l-1143 -1581h451q335 0 438 168q123 190 123 385zM987 2421l496 422h143l-512 -680h-258l-512 680h143z" />
  </font>
</defs>
</svg>
